<svg id="Layer_1" data-name="Layer 1" xmlns="http://www.w3.org/2000/svg" viewBox="0 0 1570.75 231.74"><defs><style>.cls-1{fill:#fff;}.cls-2{fill:#0468f2;}.cls-3{fill:#0368f2;}.cls-4{fill:#076af2;}</style></defs><path class="cls-1" d="M-361.91,1163.78c2.07-4.49,4-9.31,6.43-13.8,6-10.84,14.18-19.45,25.61-24.88,4.72-2.25,9.1-4.6,14.55-5.07,4.07-.35,8-2.51,12-3.74a11,11,0,0,1,3.25-.23c7.45,0,14.91-.25,22.35.09a46,46,0,0,1,10.86,2.24c8.85,2.65,18,4.47,25.66,10.28,9.31,7.08,17.56,14.91,22,26.13,2.08,5.19,4.3,10.29,4.48,15.91a23.57,23.57,0,0,1-1.09,9,24.47,24.47,0,0,1-5.53,9.12c-2.72,2.57-1.91,3.7.13,5.87,4.63,4.92,7,11,9.35,17.36,5.17,14,3.66,28.18,1.64,42.18-1,6.62-3.77,13.85-8,18.86-5.09,6-10.61,12-17.73,16.35a115.2,115.2,0,0,1-22.68,10.39c-5.5,1.94-11.66,2.38-17.57,2.69-8.15.43-16.36.36-24.52,0a80.55,80.55,0,0,1-21.08-3.85,74.68,74.68,0,0,1-28.76-16.28c-2.46-2.28-4.59-4.91-7.26-7.8-.91,4.35-1.09,8.58-2.7,12.17-2.86,6.39-7.59,11.37-14.56,13.43a34.57,34.57,0,0,1-9.06,1.26c-9.82.15-19.63.13-29.45,0-10.47-.1-17.29-6.13-22.42-14.5-.77-1.24-.34-3.18-.6-4.78a6.39,6.39,0,0,0-.86-1.71,12,12,0,0,0-2.1,1.45c-.3.32-.19,1-.27,1.57-1.29,9.22-10.46,17.71-20,17.93-11.44.25-22.91.41-34.35,0-9.83-.39-17-6.15-21.26-14.52-1.93-3.76-1.62-8.79-1.88-13.27-.29-4.89,0-9.81-.14-14.72,0-1.05-.7-2.66-1.5-3-1.73-.74-2.24.8-2.95,2.21A82,82,0,0,1-548.78,1289a74.9,74.9,0,0,1-26.63,12,60.65,60.65,0,0,1-13.4,1.58c-9.77-.06-19.56-.36-29.29-1.12-5.48-.42-10.54-2.88-15.71-4.86-8.29-3.19-14.68-8.93-21.48-14.13-3.17-2.42-4.89-6.79-7.69-9.61a18,18,0,0,1-3.82-5.46,6.91,6.91,0,0,0-8.42-3.92c-.76.28-1.76,1-1.89,1.68-.69,3.6-1.06,7.26-1.68,10.87-1.05,6.11-2,12.46-6.1,17.29a23.31,23.31,0,0,1-13.81,7.94,24.88,24.88,0,0,1-4,.3c-9.71,0-19.42-.12-29.13.07a25.21,25.21,0,0,1-17.9-6.28c-2.14-1.89-3.2-2.84-6-.06-4.36,4.36-10.05,6.47-16.64,6.41-9.4-.08-18.81,1-28.21.85-5.89-.07-12.18-.31-17.59-2.35-12.93-4.89-24.92-11.63-30.4-25.51-1.23-3.09-3.65-2.92-5.61-3.17-2.38-.3-2.22,2.19-2.44,4-1.22,10-5.76,18.11-14.31,23.4-2.88,1.78-6.81,2.44-10.3,2.55-10.71.31-21.45.29-32.16,0-3.13-.08-6.2-1.61-9.34-2.25-2-.42-4.5-1.23-6.2-.51-7.14,3-14.63,3.86-22.17,3.87-8.85,0-17.72-.54-26.57-1-6.25-.35-11.55-3.67-17-6.24-10.62-5-18.53-13-24.12-23.22-3.23-5.9-5.19-12.31-7-18.87s-2-12.76-1.84-19.21c0-2.25,1.09-4.45,1.4-6.71a27,27,0,0,0,.4-7.48c-.4-2.66-2.59-3.07-5.26-2.32a72.77,72.77,0,0,1-11.54,2.21c-4.7.52-4.79.32-4.79,5,0,16.73.08,33.45-.08,50.18a31.9,31.9,0,0,1-4,14.62c-4.41,8.34-11.65,11.93-20.78,12s-18.36-.19-27.53.09a27.3,27.3,0,0,1-19.24-6.86c-1.79-1.62-2.74-2-5,.18a23.89,23.89,0,0,1-16.82,6.68c-8.13,0-16.27.1-24.37.83-17.53,1.58-32.36-4.3-44.37-16.19a40.89,40.89,0,0,1-12.3-23.87c-.22-1.63-1.2-3.16-2.2-5.67-4.41,13-11.53,22.84-21.54,30.11-7,5.08-15,8.62-23.28,11.63-16.08,5.81-32.53,4.21-48.87,4-13.29-.2-25.47-5.49-36.68-12.38a59.34,59.34,0,0,1-19-18c0,1.84-.16,3.7,0,5.52,1.21,12.14-12.1,24.62-23.87,24-9.43-.47-18.9.08-28.35-.2-3.14-.09-6.22-1.47-9.37-2.08a13.7,13.7,0,0,0-5-.26c-5.62,1-11.15,2.87-16.81,3.39a144.16,144.16,0,0,1-19.61.09c-11.73-.49-21.95-5.1-31-12.4a57.91,57.91,0,0,1-13-14.47,50.42,50.42,0,0,1-6.76-15.6c-.2-.88,0-2-.44-2.64a50.73,50.73,0,0,0-4-4.23,25.44,25.44,0,0,0-1.06,4.84c-.13,5.45-.11,10.91,0,16.36a30.43,30.43,0,0,1-4.41,15.62,21.9,21.9,0,0,1-19.61,11.46c-10,.11-20,.21-30,0-9.28-.22-17.21-3.3-22.25-11.82-2.12-3.58-7.67-3.47-9.92.37-5.2,8.87-13,11.9-22.94,11.54a212.79,212.79,0,0,0-23,0c-11.56.83-20.08-3.67-26.48-12.88a8.94,8.94,0,0,0-3.83-3.46c-3.33-1.16-4.93,1.51-6.25,3.9-4.21,7.63-10.59,12.08-19.27,12.32-11.44.32-22.9.34-34.34,0-7.84-.24-14-3.82-19.35-10-4.09-4.68-4.58-9.85-4.6-15-.22-60.36-.11-120.73-.16-181.09a23.75,23.75,0,0,1,28-23.89,75.14,75.14,0,0,0,25.65,0c13.08-2.12,21.43,4.25,25.91,14.66a6.51,6.51,0,0,0,2.54,3.1c2.47,1.33,4.23.58,4.92-2.18,3-11.77,15.52-17.45,25.64-15.62a69,69,0,0,0,22.71.21c11.09-1.69,19.55.89,24.68,9.9a6.54,6.54,0,0,0,9.33,1.78,4.35,4.35,0,0,0,1.17-1.13c6-9.9,15.42-11.49,25.94-11.09,9.25.35,18.53,0,27.8.09,10.25.07,17.63,7.81,20.18,17.66,3.49,13.49.85,27,2,40.37.15,1.76.19,4.8,3,4.9,1.4,0,2.2-.92,2.9-3.68.54-2,.22-.87.54-2,1.75-6.25,3.17-6.83,8.7-8.13,13.51-3.17,27.28-2,41-2.14,10.4-.07,17.61,5.41,22.89,13.79,1.06,1.69,1.12,4,2.72,6.1.6-2.13.72-4.57,1.88-6.34,5.4-8.31,12.76-13.54,23.1-13.56,9.27,0,18.54-.21,27.81.08,5.78.17,11.37,1.71,15.73,5.84,5.5,5.22,9,11.48,8.92,19.34,0,4.54,0,9.09.28,13.77,2.7-6.15,6.64-11.38,10.67-16.65,5.79-7.57,13.38-12.52,21.52-16.84,6.37-3.38,10.27-4,20.39-5.86,12.39-2.37,18.13-2.08,29-1.68a122.32,122.32,0,0,1,12.94,2.65c2.25.51,4.49,1.08,6.72,1.65,7.57,1.94,14.2,5.79,20.32,10.49,3,2.29,5.66,5,8.45,7.56,1.43,1.3,2.5,1.67,2.84-.8,1.35-9.68,6.91-15.38,16.35-17.65.93-.22,2-1.9,2.14-3,.91-6,1.35-12.14,2.37-18.15,1.21-7.2,9.65-15.06,18.12-15.46,10.1-.47,19.94-3.59,30.17-2.4,9,1,16.22,5.1,20.45,13,1.91,3.54,3.65,7.73,3.1,12.29a81.74,81.74,0,0,0-.07,8.72c0,1.93.64,3,2.77,3.19,1.73.18,3.36,1.25,5.08,1.42,7.44.71,11.4,6.3,15.72,11,3-2.64,5.8-5.32,8.82-7.7a23.37,23.37,0,0,1,14-4.64c8.72-.29,17.46-.32,26.17,0,3.66.14,7.27,1.57,10.91,2.37,1,.23,2.2.68,3.12.4,4.41-1.33,8.74-2.9,13.12-4.31a12.13,12.13,0,0,1,3.65-.72c7.14,0,14.44-.88,21.21,2.24,4.89,2.26,9.07,5.63,10.57,11,1.43,5.09,2,10.41,3,15.5,4-6.8,10.86-11.15,17.54-15.69,7-4.74,14.61-9.2,23-10.57.51-.08,1-.18,1.53-.29a78.45,78.45,0,0,1,13.56-2,15,15,0,0,1,3.8-.17c6.18,0,12.37.23,18.54-.07a61.26,61.26,0,0,1,22,2.94c2,.63,4.09.42,6.84,1.89a142.34,142.34,0,0,1,15.36,7.48,39.15,39.15,0,0,1,14.77,14.43,29.69,29.69,0,0,0,1-4.26c.44-7.75,7.32-16.67,14.8-17.93,3.65-.61,3.85-2.3,3.8-5.09-.1-6.5,1.9-12.56,3.88-18.67,2.72-8.45,8.86-12.87,17.14-13.26,9.56-.46,18.82-3.18,28.54-2.54,9.09.59,19.62,6.91,22.89,15.93,2,5.45,1.4,10.7,1.65,16.06.21,4.67.23,4.18,4.45,5.41s9.23,1.61,12.61,5.37a9.68,9.68,0,0,0,2.67,1.54,14.88,14.88,0,0,0,.88-3.44c.08-8-.42-16,.19-24,.45-5.81,1.39-11.73,4.74-16.92a20.18,20.18,0,0,1,17.27-9.64c12.17-.31,24.35-.22,36.53,0,7.9.12,16.22,6.16,19.13,17.56,2.67,10.48,1.09,20.8,1.74,31.17.21,3.38.14,6.67-1.54,10-1.1,2.2-1.31,5.84-.21,8,2.73,5.24,1.4,10.62,1.77,15.92.15,2.17-.05,4.37,0,6.54.16,3.61,2.43,4.81,5.41,2.81a8.24,8.24,0,0,0,2.31-2.76c4.47-9,11-16.49,18.13-23.43,5.24-5.07,11.5-8.56,17.82-12.07,7-3.91,14.83-4.71,22.23-7,7.22-2.27,14.33-1.93,21.5-1.78a61.34,61.34,0,0,1,14.52,2,96.79,96.79,0,0,1,18.64,6.76,94.29,94.29,0,0,1,14.78,9.85A72.71,72.71,0,0,1-521.47,1163a5.41,5.41,0,0,0,1.21,1.77c.49.45,1.26,1,1.8.89s.82-1,1-1.62a5.49,5.49,0,0,0,.07-1.63c.39-7.94.74-15.89,1.18-23.83s8.23-16.09,15.84-18.38c12.33-3.71,24.81-1.23,37.19-1.79,2.87-.13,5.77,1.76,8.73,2.3a15.12,15.12,0,0,0,6.25-.12c4.79-1.24,9.4-3.21,14.22-4.25,3.14-.67,6.52-.1,9.78-.3,7.28-.44,13.9,2.42,20.82,3.76,10.48,2,18.5,8.21,25.78,14.93,5,4.61,8.14,11.37,11.52,17.49C-364,1155.82-363.19,1160.07-361.91,1163.78Zm-520,60.31h.42c-.44-15.25-.76-30.51-1.35-45.75-.35-9.09-2.8-17.4-9.1-24.46-8.42-9.44-19.29-13.32-31.34-14.4-13.23-1.19-26.54-1.35-39.54,2-18.56,4.73-31.8,15.42-37,34.54-1.48,5.41-.51,6.85,5,7.6,6.11.83,12.22,1.58,18.34,2.32,5.71.7,5.71.68,7.53-5,1.76-5.51,5.19-9.58,10.62-11.66,8.34-3.18,16.91-3.37,25.7-2.15,11.12,1.54,16.38,7.42,16,18.67-.14,4.35-.32,4.55-4.7,4.66-11.8.28-23.56.63-35.22,2.87a91.7,91.7,0,0,0-27.11,9.25c-26,14.21-25.17,48.4-11,65.13,16,19,46.69,17.93,61.65,9.63A44.14,44.14,0,0,0-918.61,1265c.53-.72,1.77-.91,2.69-1.35a21.89,21.89,0,0,1,.85,2.43c.8,3.54,1.42,7.12,2.36,10.61.55,2.07,1.27,4.24,4.19,4.22,8.36,0,16.72.1,25.07-.09,3.65-.08,5-2.17,4.18-5.76a96.05,96.05,0,0,1-2.66-24.83C-881.72,1241.55-881.89,1232.82-881.89,1224.09Zm-512.22-13.21v-61.6a30,30,0,0,0-.11-4.35c-.4-2.65-2-4.31-4.76-4.31-8.35,0-16.71,0-25,.24-3.46.08-4.61,1.25-5,4.59a13,13,0,0,0-.07,1.4c0,20.76.29,41.53-.16,62.29a125,125,0,0,1-3.08,23.63c-2.07,9.51-11.73,17.41-21.26,18.63-7.56,1-17.21-2.77-17.9-13.8-.22-3.44-.42-6.89-.43-10.33q-.06-34.07,0-68.14c0-3.63,0-7.26,0-10.9-.07-6.24-1.17-7.38-7.23-7.41q-10.36,0-20.71,0c-7.22,0-7.83.62-7.83,7.72,0,28.34-.08,56.68.07,85a95.77,95.77,0,0,0,1.53,17.83c2.27,11.6,8.45,20.89,18.95,26.58,14.84,8,40.77,8,55.44-10.46a10.39,10.39,0,0,1,1.71-2.1,3.83,3.83,0,0,1,2.31-.71c.28,0,.7,1.15.73,1.8.1,2,0,4,0,6,0,8.08.36,8.44,8.16,8.45,5.63,0,11.26,0,16.89,0,6.9,0,7.74-.88,7.75-7.93Q-1394.09,1241.95-1394.11,1210.88Zm861.57-.61c-.18-9.84-1-19.6-4.55-28.89-8.81-23.35-24.5-38.9-50.06-42-33-4-57.18,11.92-68,42-8.39,23.28-6.67,46.83,4.8,69.13,9.41,18.29,23.78,29.85,44.85,32,28.06,2.78,51.59-9,64.57-33.87C-534.66,1236.62-532.74,1223.64-532.54,1210.27Zm71.81-49.13a17.37,17.37,0,0,1-.89-3.31c-.08-3.27,0-6.54,0-9.82,0-6-1.08-7.12-6.85-7.18q-9.54-.09-19.08,0c-5.51.05-6.75,1.28-6.76,6.78q0,63.24,0,126.48c0,5.53,1.22,6.76,6.73,6.82,7.08.08,14.17,0,21.25,0,6.38,0,7.07-.74,7.08-7.32,0-20.36-.16-40.71.09-61.06a106.05,106.05,0,0,1,2-20c1.88-9.1,6.88-16.44,15.53-20.54,11.49-5.44,22.27.2,25,10.87a53.32,53.32,0,0,1,1.79,12.86c.16,26,.07,52,.09,78,0,6.34.86,7.18,7.28,7.21,7.09,0,14.17.06,21.26,0,5.18-.06,6.37-1.27,6.37-6.51,0-29.44.22-58.88-.13-88.32a57.92,57.92,0,0,0-6.65-27.23c-11.11-20.51-48.58-30.43-68.73-4.75C-457,1156.2-458.6,1158.33-460.73,1161.14ZM-1302.44,1138c-7.83,1.38-16,1.77-23.4,4.35-20.79,7.25-31.77,26.13-29,47.91a35.91,35.91,0,0,0,9.3,20c7.56,8,17.08,12.19,27.39,14.51,9.53,2.15,19.21,3.68,28.75,5.8a25.94,25.94,0,0,1,8.41,3.66,8.33,8.33,0,0,1,1.65,12.8,13.82,13.82,0,0,1-5.69,4,49.8,49.8,0,0,1-22,2.2c-9-1-16.13-4.48-19.9-13.13a4.81,4.81,0,0,0-5.45-2.73c-6.91,1.52-13.85,2.93-20.83,4.1-6.7,1.12-8.08,3.35-5.73,9.56,5.28,13.92,15.66,22.41,29.23,27.31,16.56,6,33.5,6,50.38,1.77a58.38,58.38,0,0,0,22.34-10.94c11.53-9.22,15.08-21.72,14.47-35.89-.79-18.3-11.16-31.7-28.91-36.38-10.85-2.87-21.93-4.86-32.86-7.46a79.19,79.19,0,0,1-12.88-4.13c-3.26-1.39-5.67-4-5.45-8s2.23-7.16,6-8.31a58.76,58.76,0,0,1,13.25-2.53,37.29,37.29,0,0,1,11.32,1.11c5.16,1.3,9.14,4.47,10.88,9.77,1,2.91,1.91,4.4,5.71,3.33,7-2,14.19-2.95,21.28-4.44,4.44-.93,5.59-3.08,4.13-7.34-3.66-10.66-10.67-18.38-20.59-23.57S-1291.3,1138.85-1302.44,1138Zm1013.63.63c-4.7.41-9.44.58-14.09,1.27-20.1,3-36,17.44-38.39,38-1.76,14.94,2.16,27.74,14.5,37.13a55.38,55.38,0,0,0,22.19,9.84c9.55,2.07,19.2,3.67,28.74,5.79a24.73,24.73,0,0,1,8.4,3.67c5.08,3.45,5.46,9.11,1.1,13.52a13.09,13.09,0,0,1-4.95,3.2,52.19,52.19,0,0,1-22,2.23c-9.41-1-16.61-4.84-20.43-13.87-1-2.31-2.65-2.45-4.91-2-7.62,1.56-15.3,2.86-22.94,4.37-4.39.86-6,3.65-4.28,8.12,2.81,7.39,6.84,14,13.1,19.08,9.9,8,21.36,12.1,33.88,13.41,16.57,1.73,32.59-.1,47.54-8,21.48-11.42,25.53-31,20.92-51-3.26-14.11-13.43-22.62-27.11-26.36-11-3-22.26-5-33.36-7.58a79.51,79.51,0,0,1-12.38-3.92c-3.49-1.45-6.05-4.07-5.84-8.35s2.75-7.12,6.6-8.46a31,31,0,0,1,9.49-2,66.83,66.83,0,0,1,15.1,1.12c5.48,1.18,8.89,5.31,10.89,10.56.51,1.35.44,3.38,3.07,2.8,7.95-1.76,16-3.23,23.91-5,3.91-.9,5-3.41,3.56-7.29A41.65,41.65,0,0,0-257.61,1145C-267.46,1140-278,1138.8-288.81,1138.59Zm-544.74,71.72c0,7.63-.22,15.27.06,22.9a184.61,184.61,0,0,0,1.68,22.2c2,12.67,10,20.66,21.78,24.93s24,2.27,36.1.92c2.38-.27,3.37-1.69,3.33-4.12-.09-5.63,0-11.27,0-16.91-.06-5.37-1.48-6.58-6.84-6.73a110.32,110.32,0,0,1-12.45-1c-4.64-.64-7.48-3.67-8.47-8.12a46.77,46.77,0,0,1-1.16-9.71q-.15-29.73-.05-59.45c0-4.89.68-5.46,5.83-5.52s10.18.1,15.27,0c3.8-.1,5.4-1.55,5.52-5.25.19-6,.18-12,0-18-.11-4.09-1.59-5.47-5.75-5.57-4.91-.13-9.82,0-14.72,0-5.66,0-6.14-.53-6.17-6.3,0-8.36.07-16.73,0-25.09-.05-4.38-1.35-5.68-5.54-5.49q-9.52.42-19,1.26c-4.92.42-5,.54-5.36,5.52-.68,8.51-1.42,17-1.83,25.53-.15,3.27-1.37,4.66-4.55,4.58q-4.09-.09-8.18,0c-4.74.14-5.8,1.15-5.89,5.78-.08,4-.06,8,0,12,.13,8.85-2.48,11.65,10.95,11.15,5.16-.19,5.49.39,5.51,5.64C-833.53,1187-833.55,1198.67-833.55,1210.31Zm-368.67.13c0,7.63,0,15.27,0,22.9s-.17,15.19,1.64,22.76c2.56,10.68,8.61,18.18,18.42,22.82,13.08,6.2,26.64,3.74,40.14,2.17,2.3-.27,2.72-2,2.71-4,0-5.81.07-11.63,0-17.45-.09-4.65-1.65-5.93-6.35-6.12-4.34-.17-8.7-.37-13-1-4.62-.64-7.47-3.7-8.41-8.16a52.18,52.18,0,0,1-1.14-10.26c-.1-19.63-.08-39.26,0-58.89,0-5,.46-5.44,5.75-5.5,5.09-.06,10.18.1,15.27,0,3.94-.11,5.24-1.4,5.33-5.3.14-6,.13-12,0-18-.08-4.23-1.32-5.41-5.66-5.52-4.72-.13-9.45,0-14.17,0-6.27,0-6.52-.28-6.53-6.36,0-8.18.06-16.36,0-24.53,0-4.91-1.41-6.2-6.23-6-5.89.29-11.76.94-17.65,1.08a6.52,6.52,0,0,0-6.3,6.09c-.58,8.39-1.2,16.79-1.59,25.19-.15,3.26-1.56,4.59-4.71,4.51-2.91-.08-5.82-.11-8.72,0-3.91.18-5.15,1.4-5.26,5.36-.13,4.54,0,9.09,0,13.63,0,9.81,0,9.81,9.54,9.86h1.09c5.57.11,5.94.43,6,5.84C-1202.2,1187.17-1202.22,1198.81-1202.22,1210.44Zm-516.73-23.57q0-43.59,0-87.17c0-6.27-1-7.35-7.2-7.4-7.81,0-15.61,0-23.42,0-2.81,0-5.17.77-6.22,3.41-.58,1.44-.36,3.22-.36,4.84q0,86.35,0,172.7c0,.91,0,1.82,0,2.72.1,3,1.75,4.89,4.69,4.93,9.44.13,18.88.1,28.32,0,2.51,0,4-1.5,4.15-4.12.06-1.45,0-2.9,0-4.35Zm47.93.05q0,43.35,0,86.71c0,6.19,1.1,7.27,7.32,7.3,7.09,0,14.18.06,21.26,0,5.41,0,6.45-1,6.45-6.32q0-87.81,0-175.6c0-5.38-1.29-6.63-6.84-6.7-6.54-.08-13.09,0-19.63,0-7.45,0-8.57,1.12-8.57,8.47Zm116.59-.57q0-43.61,0-87.22c0-5.53-1.19-6.76-6.68-6.82q-10.62-.12-21.25,0c-5.57.06-7,1.55-7,7.25,0,11.82,0,23.63,0,35.44v137.93c0,7.3.71,8,8.2,8q9.54,0,19.07,0c7,0,7.66-.67,7.66-7.91Zm450.46,24.14v62.14c0,7.55.77,8.3,8.53,8.31q9.54,0,19.07,0a7.5,7.5,0,0,0,7.47-7.49c0-18.17.1-36.33,0-54.49-.07-9.45,2.22-18.31,5.72-26.94,3-7.5,8.32-12.72,16.23-14.86a57.38,57.38,0,0,1,8.6-1.3c5.69-.63,6.61-1.5,6.64-7q.06-12.54,0-25.07c0-4.76-.2-4.9-4.9-5-13.25-.25-22.56,6.7-30.2,16.64-.78,1-1.32,2.18-2.07,3.2-.28.39-1.08.9-1.27.78-.52-.34-1.16-1-1.18-1.51-.12-3.45-.06-6.91-.11-10.36-.09-5.44-1.26-6.61-6.83-6.67-6-.06-12,0-18,0-6.65,0-7.67,1-7.67,7.53Q-1104,1179.42-1104,1210.49Zm403.71.36q0-31.63,0-63.25c0-5.83-.88-6.73-6.52-6.77-7.26,0-14.53-.06-21.8,0-5.49.05-6.71,1.26-6.71,6.81q0,63.25,0,126.49a6.8,6.8,0,0,0,6.73,6.79c6.91.06,13.82,0,20.74,0s7.56-.65,7.57-7.4Q-700.24,1242.19-700.26,1210.85Zm-35.07-100c0,4.17-.1,8.35,0,12.52.13,3.72,1.65,5.38,5.31,5.45q12.24.21,24.49,0c3.61-.06,5.42-1.82,5.48-5.36.14-8.53.16-17.07,0-25.6-.09-3.94-1.85-5.52-5.85-5.57-7.8-.12-15.61-.13-23.41,0-4.2.07-5.88,1.84-6,6S-735.33,1106.69-735.33,1110.87Zm-21.24,17.42c-.13-.3-.18-.76-.41-.88s-.59.18-.9.29c.13.31.18.76.41.89S-756.88,1128.41-756.57,1128.29Z" transform="translate(1779.05 -1071.1)"/><path class="cls-2" d="M-881.89,1224.09c0,8.73.17,17.46,0,26.18a96.05,96.05,0,0,0,2.66,24.83c.86,3.59-.53,5.68-4.18,5.76-8.35.19-16.71,0-25.07.09-2.92,0-3.64-2.15-4.19-4.22-.94-3.49-1.56-7.07-2.36-10.61a21.89,21.89,0,0,0-.85-2.43c-.92.44-2.16.63-2.69,1.35A44.14,44.14,0,0,1-933,1277.28c-15,8.3-45.63,9.33-61.65-9.63-14.14-16.73-15-50.92,11-65.13a91.7,91.7,0,0,1,27.11-9.25c11.66-2.24,23.42-2.59,35.22-2.87,4.38-.11,4.56-.31,4.7-4.66.37-11.25-4.89-17.13-16-18.67-8.79-1.22-17.36-1-25.7,2.15-5.43,2.08-8.86,6.15-10.62,11.66-1.82,5.69-1.82,5.71-7.53,5-6.12-.74-12.23-1.49-18.34-2.32-5.53-.75-6.5-2.19-5-7.6,5.23-19.12,18.47-29.81,37-34.54,13-3.31,26.31-3.15,39.54-2,12,1.08,22.92,5,31.34,14.4,6.3,7.06,8.75,15.37,9.1,24.46.59,15.24.91,30.5,1.35,45.75Zm-45-11.49c-6.07.91-12.18,1.62-18.19,2.8-6.45,1.26-12.58,3.56-17.66,7.89a16.84,16.84,0,0,0-6,16.56,15.27,15.27,0,0,0,10.92,12.45c7.45,2.31,15,1.57,22.46-.58,10.75-3.08,19.42-17.19,18.79-29.06C-917.1,1212.14-914.34,1212.23-926.84,1212.6Z" transform="translate(1779.05 -1071.1)"/><path class="cls-2" d="M-1394.11,1210.88q0,31.06,0,62.13c0,7-.85,7.91-7.75,7.93-5.63,0-11.26,0-16.89,0-7.8,0-8.15-.37-8.16-8.45,0-2,.06-4,0-6,0-.65-.45-1.79-.73-1.8a3.83,3.83,0,0,0-2.31.71,10.39,10.39,0,0,0-1.71,2.1c-14.67,18.5-40.6,18.5-55.44,10.46-10.5-5.69-16.68-15-18.95-26.58a95.77,95.77,0,0,1-1.53-17.83c-.15-28.35-.07-56.69-.07-85,0-7.1.61-7.7,7.83-7.72q10.35,0,20.71,0c6.06,0,7.16,1.17,7.23,7.41.05,3.64,0,7.27,0,10.9q0,34.06,0,68.14c0,3.44.21,6.89.43,10.33.69,11,10.34,14.78,17.9,13.8,9.53-1.22,19.19-9.12,21.26-18.63a125,125,0,0,0,3.08-23.63c.43-19.8.15-39.61.16-59.41,0-1.27-.08-2.55,0-3.81.3-3.71,1.39-5,5-5.06,8.34-.2,16.7-.23,25-.24,2.77,0,4.36,1.66,4.76,4.31a30,30,0,0,1,.11,4.35Z" transform="translate(1779.05 -1071.1)"/><path class="cls-3" d="M-532.54,1210.27c-.2,13.37-2.12,26.35-8.42,38.4-13,24.83-36.51,36.65-64.57,33.87-21.07-2.1-35.44-13.66-44.85-32-11.47-22.3-13.19-45.85-4.8-69.13,10.85-30.12,35-46,68-42,25.56,3.06,41.25,18.61,50.06,42C-533.58,1190.67-532.72,1200.43-532.54,1210.27Zm-90.9,3.45c.24,2.65.41,7.76,1.25,12.76,1.24,7.4,3.68,14.37,9,20,10.14,10.8,28.74,9.23,36.9-3.1,4.13-6.24,5.37-13.3,6.48-20.52a82.23,82.23,0,0,0-2.33-35.55c-1.93-6.72-5.18-12.85-11.7-16.43-13.1-7.19-28.77-1.44-34.82,12.69C-622.48,1192.46-623.34,1201.8-623.44,1213.72Z" transform="translate(1779.05 -1071.1)"/><path class="cls-3" d="M-460.73,1161.14c2.13-2.81,3.71-4.94,5.35-7,20.15-25.68,57.62-15.76,68.73,4.75a57.92,57.92,0,0,1,6.65,27.23c.35,29.44.16,58.88.13,88.32,0,5.24-1.19,6.45-6.37,6.51-7.09.08-14.17,0-21.26,0-6.42,0-7.28-.87-7.28-7.21,0-26,.07-52-.09-78a53.32,53.32,0,0,0-1.79-12.86c-2.76-10.67-13.54-16.31-25-10.87-8.65,4.1-13.65,11.44-15.53,20.54a106.05,106.05,0,0,0-2,20c-.25,20.35-.08,40.7-.09,61.06,0,6.58-.7,7.29-7.08,7.32-7.08,0-14.17.06-21.25,0-5.51-.06-6.72-1.29-6.73-6.82q0-63.24,0-126.48c0-5.5,1.25-6.73,6.76-6.78q9.54-.1,19.08,0c5.77.06,6.81,1.19,6.85,7.18,0,3.28,0,6.55,0,9.82A17.37,17.37,0,0,0-460.73,1161.14Z" transform="translate(1779.05 -1071.1)"/><path class="cls-2" d="M-1302.44,1138c11.14.89,21.87,2.11,31.81,7.31s16.93,12.91,20.59,23.57c1.46,4.26.31,6.41-4.13,7.34-7.09,1.49-14.32,2.48-21.28,4.44-3.8,1.07-4.75-.42-5.71-3.33-1.74-5.3-5.72-8.47-10.88-9.77a37.29,37.29,0,0,0-11.32-1.11,58.76,58.76,0,0,0-13.25,2.53c-3.73,1.15-5.73,4.25-6,8.31s2.19,6.64,5.45,8a79.19,79.19,0,0,0,12.88,4.13c10.93,2.6,22,4.59,32.86,7.46,17.75,4.68,28.12,18.08,28.91,36.38.61,14.17-2.94,26.67-14.47,35.89a58.38,58.38,0,0,1-22.34,10.94c-16.88,4.24-33.82,4.22-50.38-1.77-13.57-4.9-23.95-13.39-29.23-27.31-2.35-6.21-1-8.44,5.73-9.56,7-1.17,13.9-2.58,20.8-4.09,2.55-.56,4.3-.09,5.31,2.33,3.72,8.93,11,12.49,20.07,13.52a49.8,49.8,0,0,0,22-2.2,13.82,13.82,0,0,0,5.69-4,8.33,8.33,0,0,0-1.65-12.8,25.94,25.94,0,0,0-8.41-3.66c-9.54-2.12-19.22-3.65-28.75-5.8s-18.29-5.83-25.53-12.65a35.23,35.23,0,0,1-11.08-21.3c-3.1-22,7.89-41.2,28.87-48.52C-1318.44,1139.73-1310.27,1139.34-1302.44,1138Z" transform="translate(1779.05 -1071.1)"/><path class="cls-2" d="M-288.81,1138.59c10.83.21,21.35,1.44,31.2,6.41a41.65,41.65,0,0,1,21.13,23.78c1.41,3.88.35,6.39-3.56,7.29-7.94,1.81-16,3.28-23.91,5-2.63.58-2.56-1.45-3.07-2.8-2-5.25-5.41-9.38-10.89-10.56a66.83,66.83,0,0,0-15.1-1.12,31,31,0,0,0-9.49,2c-3.85,1.34-6.39,4.09-6.6,8.46s2.35,6.9,5.84,8.35a79.51,79.51,0,0,0,12.38,3.92c11.1,2.62,22.37,4.57,33.36,7.58,13.68,3.74,23.85,12.25,27.11,26.36,4.61,20,.56,39.54-20.92,51-14.95,7.94-31,9.77-47.54,8-12.52-1.31-24-5.4-33.88-13.41-6.26-5.06-10.29-11.69-13.1-19.08-1.71-4.47-.11-7.26,4.28-8.12,7.64-1.51,15.32-2.81,22.94-4.37,2.26-.45,3.93-.31,4.91,2,3.82,9,11,12.91,20.43,13.87a52.19,52.19,0,0,0,22-2.23,13.09,13.09,0,0,0,4.95-3.2c4.36-4.41,4-10.07-1.1-13.52a24.73,24.73,0,0,0-8.4-3.67c-9.54-2.12-19.19-3.72-28.74-5.79a55.38,55.38,0,0,1-22.19-9.84c-12.34-9.39-16.26-22.19-14.5-37.13,2.41-20.53,18.29-35,38.39-38C-298.25,1139.17-293.51,1139-288.81,1138.59Z" transform="translate(1779.05 -1071.1)"/><path class="cls-2" d="M-833.55,1210.31c0-11.64,0-23.27,0-34.91,0-5.25-.35-5.83-5.51-5.64-13.43.5-10.82-2.3-10.95-11.15-.06-4-.08-8,0-12,.09-4.63,1.15-5.64,5.89-5.78q4.08-.11,8.18,0c3.18.08,4.4-1.31,4.55-4.58.41-8.52,1.15-17,1.83-25.53.4-5,.44-5.1,5.36-5.52q9.5-.82,19-1.26c4.19-.19,5.49,1.11,5.54,5.49.1,8.36,0,16.73,0,25.09,0,5.77.51,6.26,6.17,6.3,4.9,0,9.81-.09,14.72,0,4.16.1,5.64,1.48,5.75,5.57.17,6,.18,12,0,18-.12,3.7-1.72,5.15-5.52,5.25-5.09.14-10.18,0-15.27,0s-5.82.63-5.83,5.52q-.06,29.71.05,59.45a46.77,46.77,0,0,0,1.16,9.71c1,4.45,3.83,7.48,8.47,8.12a110.32,110.32,0,0,0,12.45,1c5.36.15,6.78,1.36,6.84,6.73.06,5.64-.05,11.28,0,16.91,0,2.43-.95,3.85-3.33,4.12-12.07,1.35-24.23,3.4-36.1-.92s-19.77-12.26-21.78-24.93a184.61,184.61,0,0,1-1.68-22.2C-833.77,1225.58-833.55,1217.94-833.55,1210.31Z" transform="translate(1779.05 -1071.1)"/><path class="cls-2" d="M-1202.22,1210.44c0-11.63,0-23.27,0-34.9,0-5.41-.38-5.73-6-5.84h-1.09c-9.54,0-9.54,0-9.54-9.86,0-4.54-.1-9.09,0-13.63.11-4,1.35-5.18,5.26-5.36,2.9-.13,5.81-.1,8.72,0,3.15.08,4.56-1.25,4.71-4.51.39-8.34,1-16.67,1.58-25,.34-5.06,1-6.16,6-6.27,6-.13,11.94-.8,17.92-1.09,4.82-.23,6.18,1.06,6.23,6,.09,8.17,0,16.35,0,24.53,0,6.08.26,6.32,6.53,6.36,4.72,0,9.45-.1,14.17,0,4.34.11,5.58,1.29,5.66,5.52.12,6,.13,12,0,18-.09,3.9-1.39,5.19-5.33,5.3-5.09.15-10.18,0-15.27,0-5.29.06-5.74.46-5.75,5.5,0,19.63,0,39.26,0,58.89a52.18,52.18,0,0,0,1.14,10.26c.94,4.46,3.79,7.52,8.41,8.16,4.3.6,8.66.8,13,1,4.7.19,6.26,1.47,6.35,6.12.11,5.82,0,11.64,0,17.45,0,2-.41,3.76-2.71,4-13.5,1.57-27.06,4-40.14-2.17-9.81-4.64-15.86-12.14-18.42-22.82-1.81-7.57-1.59-15.14-1.64-22.76S-1202.22,1218.07-1202.22,1210.44Z" transform="translate(1779.05 -1071.1)"/><path class="cls-3" d="M-1718.95,1186.87v85.53c0,1.45,0,2.9,0,4.35-.13,2.62-1.64,4.09-4.15,4.12-9.44.09-18.88.12-28.32,0-2.94,0-4.59-1.89-4.69-4.93,0-.9,0-1.81,0-2.72q0-86.34,0-172.7c0-1.62-.22-3.4.36-4.84,1-2.64,3.41-3.44,6.22-3.41,7.81.09,15.61,0,23.42,0,6.15,0,7.2,1.13,7.2,7.4Q-1718.93,1143.29-1718.95,1186.87Z" transform="translate(1779.05 -1071.1)"/><path class="cls-3" d="M-1671,1186.92v-86.16c0-7.35,1.12-8.45,8.57-8.47,6.54,0,13.09-.06,19.63,0,5.55.07,6.84,1.32,6.84,6.7q0,87.79,0,175.6c0,5.3-1,6.28-6.45,6.32-7.08.06-14.17,0-21.26,0-6.22,0-7.32-1.11-7.32-7.3Q-1671,1230.26-1671,1186.92Z" transform="translate(1779.05 -1071.1)"/><path class="cls-3" d="M-1554.43,1186.35V1273c0,7.24-.62,7.89-7.66,7.91q-9.54,0-19.07,0c-7.49,0-8.2-.71-8.2-8V1135c0-11.81,0-23.62,0-35.44,0-5.7,1.41-7.19,7-7.25q10.62-.12,21.25,0c5.49.06,6.68,1.29,6.68,6.82Q-1554.39,1142.74-1554.43,1186.35Z" transform="translate(1779.05 -1071.1)"/><path class="cls-3" d="M-1104,1210.49q0-31.08,0-62.14c0-6.51,1-7.5,7.67-7.53,6,0,12,0,18,0,5.57.06,6.74,1.23,6.83,6.67,0,3.45,0,6.91.11,10.36,0,.53.66,1.17,1.18,1.51.19.12,1-.39,1.27-.78.75-1,1.29-2.2,2.07-3.2,7.64-9.94,16.95-16.89,30.2-16.64,4.7.09,4.87.23,4.9,5q.06,12.54,0,25.07c0,5.55-1,6.42-6.64,7a57.38,57.38,0,0,0-8.6,1.3c-7.91,2.14-13.19,7.36-16.23,14.86-3.5,8.63-5.79,17.49-5.72,26.94.14,18.16,0,36.33,0,54.5,0,6.87-.61,7.46-7.47,7.48q-9.54,0-19.07,0c-7.76,0-8.53-.76-8.53-8.31Z" transform="translate(1779.05 -1071.1)"/><path class="cls-3" d="M-700.26,1210.85q0,31.34,0,62.69c0,6.75-.66,7.38-7.57,7.4s-13.81,0-20.72,0c-5.5-.06-6.75-1.28-6.75-6.79q0-63.24,0-126.49c0-5.55,1.22-6.76,6.71-6.81,7.27-.07,14.54-.06,21.8,0,5.64,0,6.52.94,6.52,6.77Q-700.22,1179.22-700.26,1210.85Z" transform="translate(1779.05 -1071.1)"/><path class="cls-4" d="M-735.33,1110.87c0-4.18-.1-8.35,0-12.52s1.8-6,6-6c7.8-.14,15.61-.13,23.41,0,4,0,5.76,1.63,5.85,5.57.18,8.53.16,17.07,0,25.6-.06,3.54-1.87,5.3-5.48,5.36q-12.24.21-24.49,0c-3.66-.07-5.18-1.73-5.31-5.45C-735.43,1119.22-735.33,1115-735.33,1110.87Z" transform="translate(1779.05 -1071.1)"/><path class="cls-1" d="M-926.84,1212.6c12.5-.37,9.74-.46,10.3,10.06.63,11.87-8,26-18.79,29.06-7.5,2.15-15,2.89-22.46.58a15.27,15.27,0,0,1-10.92-12.45,16.84,16.84,0,0,1,6-16.56c5.08-4.33,11.21-6.63,17.66-7.89C-939,1214.22-932.91,1213.51-926.84,1212.6Z" transform="translate(1779.05 -1071.1)"/><path class="cls-1" d="M-623.44,1213.72c.1-11.92,1-21.26,4.76-30.12,6-14.13,21.72-19.88,34.82-12.69,6.52,3.58,9.77,9.71,11.7,16.43a82.23,82.23,0,0,1,2.33,35.55c-1.11,7.22-2.35,14.28-6.48,20.52-8.16,12.33-26.76,13.9-36.9,3.1-5.3-5.66-7.74-12.63-9-20C-623,1221.48-623.2,1216.37-623.44,1213.72Z" transform="translate(1779.05 -1071.1)"/></svg>