<svg id="Layer_1" data-name="Layer 1" xmlns="http://www.w3.org/2000/svg" viewBox="0 0 298.82 86.93"><defs><style>.cls-1{fill:#fcfcfc;}.cls-2{fill:#0167f1;}.cls-3{fill:#0267f0;}.cls-4{fill:#0167f0;}.cls-5{fill:#fff;}.cls-6{fill:#c4c4c5;}</style></defs><path class="cls-1" d="M223.15,108.06a6.58,6.58,0,0,1-4.89-.34A3.91,3.91,0,0,1,217,107c-1.56-1.77-3.06-3.61-4.59-5.42-.65-.76-1.3-1.51-2-2.25-.09-.1-.27-.13-.4-.19a1.26,1.26,0,0,0-.14.38,11.77,11.77,0,0,1-.74,3.49A8.14,8.14,0,0,1,208,105.7c-.91,1.14-1.65,2.25-3.43,2.41a8.18,8.18,0,0,1-7.3-3.22,18.07,18.07,0,0,1-2.29-4.83,24.25,24.25,0,0,1-.72-2.85,5.63,5.63,0,0,0-.36-.79c-.25.21-.61.38-.74.66a9.14,9.14,0,0,1-2.45,3.1c-.6.51-1,1.27-1.64,1.7a43.25,43.25,0,0,1-4.13,2.37,26.72,26.72,0,0,1-3.41,1.43,23.07,23.07,0,0,1-2.61.63c-1.55.37-3.08.83-4.65,1.09s-3.17.33-4.76.44a37.06,37.06,0,0,1-3.94.14,3.89,3.89,0,0,1-2.16-.59c-1.18-.94-2.71-.76-3.94-1.47-.47-.27-1-.45-1.49-.68-.09,0-.17-.19-.26-.2-2-.27-3.05-2-4.57-3a12.82,12.82,0,0,1-2.16-1.8c-.84-.86-1.6-1.81-2.36-2.75-.2-.26-.23-.65-.44-.9a9.12,9.12,0,0,1-1.71-5.3,14,14,0,0,1,.87-6.54,2,2,0,0,1,.36-.57c.61-.71,1.24-1.4,1.87-2.09a1,1,0,0,1,.47-.34c1.84-.35,3.67-1,5.56-.7a7.54,7.54,0,0,1,4.75,2.83A18.49,18.49,0,0,0,165,88.55a9.54,9.54,0,0,0,4.16,1.51,23,23,0,0,0,3.28.32,5,5,0,0,0,4.24-2.24,1.94,1.94,0,0,0,.23-2c-1-2.53-3-3.87-5.47-4.79-1.73-.65-3.4-1.49-5.11-2.22-.72-.31-1.5-.49-2.23-.79-1.07-.44-2.13-.9-3.17-1.4a25.17,25.17,0,0,0-2.68-1.38c-.43-.14-1,.28-1.56.44-1.24.4-2.47.85-3.73,1.17-1.41.36-2.85.59-4.27.89a15.6,15.6,0,0,1-2,.49,1.11,1.11,0,0,1-1.22-1,8.74,8.74,0,0,1,.74-5.6c.39-.85.74-1.71,1-2.41-.74-.08-1.44-.15-2.14-.25-.16,0-.36-.25-.43-.21-.71.44-1.35-.36-2-.08a.29.29,0,0,1-.24,0,3.11,3.11,0,0,0-2.17-.56c-.67,0-1.4-.61-2.1-1l-.47-.27a42.93,42.93,0,0,1-.44,4.76A9.78,9.78,0,0,1,136,74.63c-.81,1.46-1.65,2.91-2.55,4.32-.69,1.09-1.5,2.11-2.22,3.18a.69.69,0,0,0,0,.61c.72,1.32,1.46,2.63,2.2,3.94.9,1.6,1.76,3.22,2.72,4.78.76,1.24,1.71,2.35,2.47,3.58s1.49,2.69,2.2,4.06a1.65,1.65,0,0,1,0,.74,4.06,4.06,0,0,0-.09,1.33,2.22,2.22,0,0,1-1.22,2.72,6.62,6.62,0,0,1-2.68.87,10.93,10.93,0,0,1-4.26-.52c-3.35-.94-5.87-3.2-8.59-5.15a22,22,0,0,1-2.59-2.52c-.34-.34-.6-.38-.91.08-2.12,3-5.13,5.1-8.09,7.18a16.44,16.44,0,0,1-3.73,1.64c-2.07.77-3.68,0-5.32-1.38-.64-.53-.85-1.19-1.34-1.71s-1.16-.17-1.55.12a22,22,0,0,1-8.32,3.83,25.88,25.88,0,0,1-9,.36c-1.86-.23-3.74-.37-5.57-.73a11.71,11.71,0,0,1-4.23-1.67c-.93-.62-1.87-1.22-2.79-1.84-.73-.5-1.32-.07-1.9.29-1.93,1.18-3.64,2.75-5.88,3.37a2.66,2.66,0,0,1-1.25,0c-1.66-.43-3.31-1-5-1.33a3.11,3.11,0,0,0-1.73.31c-1.39.62-2.73,1.35-4.09,2a2,2,0,0,1-.65.12,19.46,19.46,0,0,1-2,.17,4.09,4.09,0,0,1-1.6-.22c-1-.45-2-1.07-3.07-1.54a12.65,12.65,0,0,1-4.94-4.49,17.92,17.92,0,0,1-2-3.1,20.69,20.69,0,0,1-.88-3.38c-.31-1.24-.61-2.49-.93-3.73-.12-.46-.32-.89-.42-1.35-.22-1-2.41-1.73-3.15-1.08a1,1,0,0,0-.24.42c-.6,1.54-1.2,3.09-1.77,4.64-.23.63-.38,1.29-.59,1.92-.3.91-.6,1.81-.92,2.71a12.59,12.59,0,0,1-.69,1.76A15.32,15.32,0,0,1,25.07,103c-1,1.1-1.74,2.54-3.47,2.78-.32.05-.59.48-.92.56-1.45.33-2.91.61-4.37.89a7.55,7.55,0,0,1-1.26.07,6.4,6.4,0,0,1-1.16-.06c-.52-.1-.89-.58-1.61-.28-.42.17-1.18-.31-1.73-.6-2.4-1.24-4.78-2.61-6.17-5a31.74,31.74,0,0,1-2.14-5.25,32.6,32.6,0,0,0-1.13-3.63,3,3,0,0,1,.36-3.22A10.34,10.34,0,0,1,5.11,86a5,5,0,0,0,2.06-2.6c0-.1.08-.21.11-.31.45-1.59.4-1.54-.86-2.65a4.61,4.61,0,0,1-1.86-3.78,7.73,7.73,0,0,1,.33-3,5.4,5.4,0,0,1,3-3.12c.8-.33,1.68-.46,2.49-.77a5.41,5.41,0,0,0,3.52-3.73,36.73,36.73,0,0,1,1.5-3.7c.64-1.54,1.27-3.08,1.92-4.61,1.1-2.61,2.27-5.19,3.32-7.82.62-1.55,1-3.18,1.58-4.77.15-.44.44-.84.63-1.27.71-1.61,1.38-3.25,2.14-4.84A9.72,9.72,0,0,1,26,37.75c.18-.27.19-.66.38-.93.67-1,1.38-1.93,2.1-2.87A2.68,2.68,0,0,1,30.85,33a8.46,8.46,0,0,1,3.15.75,13.45,13.45,0,0,1,2.28,1.9c1.31,1.1,1.46,2.91,2.56,4.14A5.76,5.76,0,0,1,40,41.2a13,13,0,0,1,.56,2.17,4.61,4.61,0,0,0,.22.51,45.55,45.55,0,0,1,3.66-3.8,34.68,34.68,0,0,1,4-2.56,9.55,9.55,0,0,1,4.44-1.88,1.08,1.08,0,0,0,.61-.26c.8-.77,1.76-.47,2.68-.45a7.82,7.82,0,0,0,1.27.06,5.85,5.85,0,0,1,5.09,1.7c.51.47,1.16.79,1.64,1.29a4.17,4.17,0,0,1,.7,1.3,22.8,22.8,0,0,1,1.4,6.95c.17,2.47,0,5,0,7.45,0,.68.12,1.36.13,2,.07,2.59.11,5.18.18,7.77,0,2,.13,4,.16,6.06,0,1.59,0,3.18,0,5a17.35,17.35,0,0,0,2.38-2.4,13,13,0,0,1,3.17-3.28c1.18-.89,2.26-1.94,3.51-2.73a18.26,18.26,0,0,1,3-1.29c.47-.19,1-.31,1.42-.52,2.49-1.13,5.08-.85,7.66-.47,1.2.18,2.34.77,3.54.86,1.62.12,2.9,1,4.36,1.52a.38.38,0,0,1,.22.11c.63.93,1.73,1,2.63,1.48a1.8,1.8,0,0,1,.55.38c.73.9,1.43,1.82,2.25,2.86a4.93,4.93,0,0,1-.07-1.17c.4-1.92.81-3.87,2.42-5.18,2.07-1.69,4.39-2.78,7.13-1.88,2.33.76,4.59,1.7,6.18,3.75.7.89,1.55,1.68,2.32,2.52.48.53.91.56,1.36,0a49.32,49.32,0,0,1,4.66-4.82,15.2,15.2,0,0,1,3-2.3,7,7,0,0,1,5.38-.8,2,2,0,0,0,1.2-.25c.95-.46,1.87-1,2.81-1.5,3.73-2,6.39-5.06,9-8.26A17,17,0,0,0,148,49.31c.21-.35.21-.56-.26-.84a3.16,3.16,0,0,1-1.53-2,7.24,7.24,0,0,0-.83-1.61c0-.07-.2-.12-.19-.14.24-1-.63-1.58-.79-2.41-.26-1.38-.59-2.79.18-4.12a1.32,1.32,0,0,1,1.84-.7,19.35,19.35,0,0,0,3.33.73,6.14,6.14,0,0,0,1.75.16c.32,0,.6-.46.88-.73.06-.06,0-.28.09-.3,1.17-.46.78-1.79,1.42-2.57.35-.44,1.12-1.33,1.75-1.29,1.2.07,2.39.27,3.58.3a35.78,35.78,0,0,0,3.59-.11c1-.08,2-.28,3-.35a32.24,32.24,0,0,1,9,.28c1.37.3,2.79.38,4.14.72a10.52,10.52,0,0,1,2.45,1.15,41.84,41.84,0,0,1,3.68,2.28c1.13.83,2.15,1.8,3.2,2.73a9.64,9.64,0,0,1,1.34,1.37c.91,1.22,1.75,2.48,2.63,3.72a2.38,2.38,0,0,0,.29.26c0-.79,0-1.47,0-2.14a3.74,3.74,0,0,1,.16-1.16c.47-1.23.5-2.63,1.4-3.69.2-.23.36-.55.61-.68a16.74,16.74,0,0,0,3.91-3.55A20.12,20.12,0,0,1,201.56,32a3.11,3.11,0,0,1,2.25-.47c3.21.77,3.6,2.48,3.86,4.93.14,1.29.59,2.55.85,3.83a23.4,23.4,0,0,1,.43,3c.1,1.65.13,3.3.13,5,0,.87-.15,1.74-.23,2.61a.78.78,0,0,0,0,.34c.54,1.21.4,2.55.69,3.82a12.67,12.67,0,0,1,0,2.89c0,1.86-.05,3.72-.05,5.58a1.85,1.85,0,0,0,.23.6c.14.37.47.7.13,1.14a.63.63,0,0,0,0,.58c.63,1.17.26,2.38.18,3.59a15.45,15.45,0,0,0,0,2.72c.07.62.55.32.83.14a18.63,18.63,0,0,0,1.8-1.25c1.47-1.19,2.87-2.48,4.4-3.6a8.69,8.69,0,0,1,7.38-1.65,3.62,3.62,0,0,1,2.56,1.89c.29.51.45.38.77,0a7.13,7.13,0,0,1,5-2.59,4.27,4.27,0,0,1,3.34,1.08c.39.39,1.08.54,1.38,1,.8,1.12,1.48,2.33,2.17,3.52.41.72.7,1.51,1.16,2.19.28.44.81.7,1.18,1.09.74.8,1.45,1.64,2.2,2.44a.67.67,0,0,0,.49-.25c.23-.51.33-1.07.57-1.58a23.08,23.08,0,0,0,1.6-3.23c.57-1.9,2-3.17,3.18-4.56a5.17,5.17,0,0,1,1.6-1,9,9,0,0,1,2.37-1c.88-.16,1.86-.5,2.75.2a4.75,4.75,0,0,0,1.17.4,7.69,7.69,0,0,1,3.07,2.61,3.33,3.33,0,0,1,.8,2.33c-.12,1.72.15,3.47-.62,5.12-.08.18.24.54.37.82a4.91,4.91,0,0,0,.51-.51c.62-.84,1.19-1.72,1.83-2.54a9,9,0,0,1,1.64-1.87,47.83,47.83,0,0,1,4.84-3.16,12.22,12.22,0,0,1,2.91-.85c1.35-.34,2.71-.62,4.07-.93a9.84,9.84,0,0,1,4.22.07,37.34,37.34,0,0,1,6.23,1.81,13.08,13.08,0,0,1,5.06,3c.46.51,1.23.75,1.63,1.28,1,1.38,1.93,2.84,2.86,4.29a7.84,7.84,0,0,1,.78,1.56c.45,1.28.87,2.57,1.24,3.87a1.85,1.85,0,0,1-.2,1A11.83,11.83,0,0,1,297,87.34a2.54,2.54,0,0,0-.55,1.25c0,.17.32.49.56.6,2.52,1.16,3.28,3.17,2.07,5.69-.68,1.42-1.35,2.84-2.13,4.21a6.28,6.28,0,0,1-1.3,1.38c-1,1-2.17,1.73-3.22,2.6a23.6,23.6,0,0,1-4.52,2.68,4.81,4.81,0,0,1-2.37.65c-1.14-.1-2.07.45-3.11.58s-2.22,0-3.33,0a32.3,32.3,0,0,0-3.26.26,8.88,8.88,0,0,1-4.35-.79,16.32,16.32,0,0,1-5-3c-.91-.76-2-1.29-2.88-2.1-1-1-1.82-2.15-2.77-3.19a8.11,8.11,0,0,0-4.1-2.49c-1-.25-1.73.59-2.25,1.32a16.83,16.83,0,0,0-2.51,4.21,22.18,22.18,0,0,1-2.11,4.65,69.39,69.39,0,0,1-5,7.11,12.28,12.28,0,0,1-3.48,2.55,21.83,21.83,0,0,1-4.63,2.21c-1.59.47-3.28,1-5,.09a15.72,15.72,0,0,0-3.25-1,6.4,6.4,0,0,1-3.62-3,10.85,10.85,0,0,1-1.44-2.94A14.45,14.45,0,0,1,223.15,108.06Zm8.9-22.74h0L230,82q-.75-1.2-1.53-2.37c-.54-.81-1.17-1.58-1.63-2.43a20.1,20.1,0,0,1-.93-2.44,22.82,22.82,0,0,1-1.83,2.5c-1.89,1.93-2.78,4.44-4,6.75a2.35,2.35,0,0,0,.11,2.73,20.14,20.14,0,0,1,1.39,2.39c.44.76.91,1.51,1.34,2.29,1,1.79,2,3.6,3,5.41.66,1.19,1.33,2.38,1.94,3.61a3.62,3.62,0,0,1,.55,1.74c-.09.81.2.94.86.92.19,0,.38.06.58.06,1.55,0,3,.52,4.66,0a6.35,6.35,0,0,0,3.61-3.07,8.16,8.16,0,0,0,.7-6.19,11.44,11.44,0,0,0-2-3.27,32.65,32.65,0,0,0-2.23-2.75C233.77,87,232.9,86.19,232.05,85.32ZM139.53,63.56c1.5.33,2.81.71,4.15.88a16.69,16.69,0,0,0,8.22-1.34c.4-.16.59-.1.66.3a13.39,13.39,0,0,1,.33,2.5c-.08,2.41-1.14,4.52-2.18,6.63-.1.22-.17.45-.26.67a2.29,2.29,0,0,0,.8.22,10.56,10.56,0,0,0,5.38-2,3.08,3.08,0,0,1,2-.66,5.59,5.59,0,0,1,2,1,42.45,42.45,0,0,0,8.16,3.53A32.85,32.85,0,0,1,173.24,77a36,36,0,0,1,3.8,2.49A9.38,9.38,0,0,1,180.18,84a7.64,7.64,0,0,1,.15,4.39,5.29,5.29,0,0,1-2.26,3.68,13.21,13.21,0,0,1-7.29,2.08,40.7,40.7,0,0,1-4.1-.34,8.3,8.3,0,0,1-6.05-3A25.23,25.23,0,0,1,158,86.41c-.49-.92-1.91-2.07-3-1.94a4.25,4.25,0,0,0-2.64.71c-.78.71-1.79,1.35-1.92,2.51a12.74,12.74,0,0,0,1.88,7.7,13.88,13.88,0,0,0,4.13,4.16A19.75,19.75,0,0,0,168,103.74,30.34,30.34,0,0,0,179.39,102a19,19,0,0,0,8.33-6.07,13.15,13.15,0,0,0,3-9.67,26.76,26.76,0,0,0-.72-3.86,15.93,15.93,0,0,0-4.91-8.19,19.9,19.9,0,0,0-6.21-3.69c-3-1.19-6-2.49-9-3.8-2.42-1.06-4.89-2-6.71-4.11a7.23,7.23,0,0,1-1.9-4.31,8.32,8.32,0,0,1,2.87-6.64,10.06,10.06,0,0,1,5.93-2.7,9.74,9.74,0,0,1,8.31,2.28,16.87,16.87,0,0,1,3.72,4.87c.85,1.66,3.78,2.45,5.15,1.28a9,9,0,0,0,2.07-3c.68-1.45,0-3-.45-4.31a14.16,14.16,0,0,0-4.31-6.39,21,21,0,0,0-7.9-4.06,45.1,45.1,0,0,0-13-1.22c-1,0-2.06.14-3.09.22l0,.23,3.7,2-.67.15c-2.46.53-4.91,1.23-7.4,1.51a14.44,14.44,0,0,1-6.14-.59c-.52-.17-.53-.06-.41.38a5.37,5.37,0,0,0,4.06,4.16c.45.1.48.23.27.61-1.05,1.86-2,3.78-3.13,5.6a27.48,27.48,0,0,1-6.57,7.4C142.76,61.2,141.25,62.28,139.53,63.56ZM6.08,93.31l-.2,0c.3,1.22.54,2.45.92,3.64,1.16,3.61,4,5.32,7.43,5.88,3.67.59,6.52-1.25,8.7-4a11.36,11.36,0,0,0,1.72-3.81c.69-2.34,1.25-4.72,1.74-7.11.46-2.23.72-4.52,1.18-6.75.28-1.42.06-1.36,1.7-1.33.19,0,.38-.07.58-.08,1.26,0,2.52-.11,3.79-.12a1.25,1.25,0,0,1,1.24,1c.24.78.58,1.52.87,2.28.62,1.6,1.37,3.16,1.83,4.8a40.75,40.75,0,0,0,3.5,8.82c1.22,2.18,2.79,4.13,5.31,4.94a18.57,18.57,0,0,0,3.64.88c.85.1,1.3-.69,1-1.56-1-3.51-2-7-3-10.51-1.23-4.26-2.46-8.52-3.73-12.76-.74-2.51-1.57-5-2.31-7.5-1-3.2-1.77-6.44-2.77-9.62S37.11,54,36,50.7c-1-2.81-1.88-5.64-2.92-8.42a13.41,13.41,0,0,0-1.47-2.41c-.08-.12-.43-.24-.48-.19-.75.75-2,.87-2.4,2.11-1.1,3.31-2.34,6.56-3.5,9.84-1.3,3.69-2.51,7.41-3.89,11.07-1.15,3-2.47,6-3.75,9a1.13,1.13,0,0,1-.67.56c-1.07.25-2.15.41-3.22.66a8.17,8.17,0,0,0-1.95.6A19.19,19.19,0,0,0,9.59,75c-.17.12-.39.27-.42.45A2.67,2.67,0,0,0,11,78.22c1,.18,1.93.29,2.9.4.79.08,1.07.43.82,1.19-.78,2.35-1.55,4.7-2.38,7a6.71,6.71,0,0,1-5,4.43c-1.28.31-1.28.3-1.29,1.61Zm201.1,1.55-.27,0c.11-.72.23-1.43.35-2.15a3,3,0,0,1,1.73-2.1,1.77,1.77,0,0,1,2,1.06,5.32,5.32,0,0,0,.36.47c2.44,3.37,4.87,6.76,7.34,10.1a4.69,4.69,0,0,0,1.57,1.33c.77.42,1.47-.06,1.63-.94.07-.32.13-.75.35-.92.68-.54.48-1.16.29-1.8a7.58,7.58,0,0,1-.34-1.12c-.26-2.17-1.68-3.77-2.72-5.54-1.18-2-2.66-3.82-3.82-5.83a3.88,3.88,0,0,1,.47-4.89,58.66,58.66,0,0,0,3.74-5,39.56,39.56,0,0,0,2.35-3.77A13.7,13.7,0,0,0,223.33,71c.21-.75-.78-1.65-1.38-1.33-1,.54-1.95,1.13-2.9,1.74a11.92,11.92,0,0,0-1.11.91c-1.38,1.15-2.82,2.24-4.14,3.46-1.88,1.74-3.68,3.56-5.5,5.36-.51.5-.67.32-.75-.26s-.22-1.34-.29-2c-.45-4.32-.92-8.64-1.33-13-.16-1.72-.16-3.45-.27-5.18-.09-1.5-.25-3-.32-4.51s0-3.31-.13-5c-.21-2.84-.46-5.69-.81-8.52a31.27,31.27,0,0,0-1-4.59c-.09-.36-.71-.57-1.08-.84a1.55,1.55,0,0,1-1.26,1.27s0,.26-.08.4c-.13.57-.39,1-1.06,1-.19,0-.4.22-.57.38s-.28.46-.48.55c-1.3.58-1.89,1.79-2.57,2.9a1.23,1.23,0,0,0-.06.79c.18.93.51,1.84.6,2.78.26,2.82.44,5.64.66,8.47.16,2.22.32,4.44.5,6.66.2,2.43.42,4.85.64,7.28.11,1.29.28,2.57.33,3.86.08,1.86.06,3.72.11,5.58,0,2.07.2,4.13.21,6.2,0,2.94-.08,5.88-.14,8.82,0,1.14-.09,2.28-.16,3.42-.07,1.31.18,1.65,1.3,2.31a3.62,3.62,0,0,1,1,1.23,12.7,12.7,0,0,1,.8,1.61c.4.89,1.09.38,1.68.35,0,0,0,0,.08,0,1.39.15,1.79-.17,1.88-1.51a3.69,3.69,0,0,1,.09-.58C206.31,99,206.75,96.94,207.18,94.86Zm73-24.3c-5,.45-9.65,2.09-13.08,6.2A14.14,14.14,0,0,0,263.44,86a1.82,1.82,0,0,1-1.2,2,12.14,12.14,0,0,1-1.25.51c-.63.2-1.12.46-1.14,1.25s.53,1.24,1.16,1.59c.41.23.81.47,1.2.74s.68.5,1,.77a5.18,5.18,0,0,1,1.09,1c1.18,1.87,2.19,3.82,4.16,5.11,2.43,1.6,4.89,3.12,7.86,3.38a33.18,33.18,0,0,0,4.88-.08,13.88,13.88,0,0,0,3.14-.49,24.58,24.58,0,0,0,7.92-4,10,10,0,0,0,3.49-4.22c.35-.89,0-1.5-1-1.52-.28,0-.56.06-.84.07s-.79.12-1.06,0a2,2,0,0,0-2.5.42c-.63.51-1.37.88-2,1.34a14.22,14.22,0,0,1-8.63,2.94,16.48,16.48,0,0,1-3.33-.52A8.34,8.34,0,0,1,271,92.66a.75.75,0,0,1,.53-1.24c1.26-.25,2.53-.47,3.76-.83,3.66-1.06,7.31-2.18,11-3.29,2.44-.75,4.92-1.4,7.28-2.35A2.33,2.33,0,0,0,295,81.72,19.7,19.7,0,0,0,292.3,77a15.84,15.84,0,0,0-3.62-3.5A15.48,15.48,0,0,0,280.16,70.56ZM87.28,100.76a24.65,24.65,0,0,0,3.42-.58,19.65,19.65,0,0,0,5.8-2.65c2.08-1.46,4.12-2.94,5.18-5.38.24-.53.53-1.15,0-1.54a3.48,3.48,0,0,0-1.56-.31c-.59-.07-1.19-.14-1.79-.16a1.88,1.88,0,0,0-1,.12c-1.55,1-3.08,2.08-4.61,3.13a11.41,11.41,0,0,1-6,1.86,11.94,11.94,0,0,1-5.2-1,6.89,6.89,0,0,1-3.75-3.05c-.34-.64-.16-1.21.41-1.34,1.22-.27,2.46-.5,3.67-.86,2.39-.71,4.76-1.5,7.14-2.25.56-.18,1.14-.31,1.7-.5,2.72-1,5.45-1.89,8.16-2.87,1.81-.66,3.28-2.06,2.16-4.28-.51-1-1.08-2-1.63-3a14.26,14.26,0,0,0-5.5-5.45,12.91,12.91,0,0,0-6.81-2A18.16,18.16,0,0,0,78.45,71a14.36,14.36,0,0,0-5.68,5.36,15.35,15.35,0,0,0-2.36,7.79,1.7,1.7,0,0,1-1,1.81,12.34,12.34,0,0,1-1.24.55c-.64.2-1.1.51-1.16,1.25a1.89,1.89,0,0,0,1.07,1.76c1.31.9,2.74,1.66,3.47,3.21.4.86.93,1.66,1.41,2.49a10.45,10.45,0,0,0,3.66,3.17,12.64,12.64,0,0,0,6.73,2.34C84.49,100.77,85.65,100.76,87.28,100.76Zm142.92,6.53c-.51,0-1,0-1.51,0a1.76,1.76,0,0,0-1.63,1.48,3.75,3.75,0,0,0,.55,3.21,13.58,13.58,0,0,0,1.33,1.5,2.93,2.93,0,0,0,1.13.77,11.1,11.1,0,0,0,2.49.37,16.72,16.72,0,0,0,4.07-.14,10.81,10.81,0,0,0,6-4.34c.76-1,1.43-2.08,2.12-3.13a48,48,0,0,0,4.81-8.82c.56-1.41,1.17-2.82,1.76-4.22.78-1.85,1.6-3.68,2.32-5.55s1.42-3.92,2.07-5.9c.31-.93.5-1.9.77-2.85.66-2.25,1.34-4.5,2-6.75A1.89,1.89,0,0,0,257.9,71c-.29-.31-.53-.66-.84-.93-.55-.49-.9-1.17-1.81-1.25a2.85,2.85,0,0,0-2.63,1.22c-.75,1-1.35,2-2.05,3-1.24,1.74-1.69,3.81-2.36,5.77-.58,1.69-.94,3.46-1.43,5.18-.22.79-.84,1-1.42.45a44.24,44.24,0,0,1-3-3.31c-.86-1-1.59-2.21-2.43-3.29s-1.59-1.81-2.33-2.76c-1.29-1.66-2.51-3.37-3.81-5a1.14,1.14,0,0,0-.94-.34,2.52,2.52,0,0,0-2,2.67c0,.94.06,1.89.15,2.83a5.77,5.77,0,0,0,.34,1.42A28.44,28.44,0,0,0,235.2,83c2,2.74,4.32,5.19,5.86,8.23.83,1.62,1.67,3.23,2.38,4.9a2.32,2.32,0,0,1,0,1.7,23.26,23.26,0,0,1-4.5,6.38C236.55,106.61,233.79,108.19,230.2,107.29ZM60.9,45.56c-.09-1.14-.12-2-.23-2.88a1.85,1.85,0,0,0-1.36-1.76,8.62,8.62,0,0,0-2.62-.26,16.87,16.87,0,0,0-9,3.43C46.51,45,46.59,46,48,46.76l.45.23c1.66.81,3,1.92,3.27,3.88s.5,3.62.67,5.44c.15,1.62.16,3.26.31,4.89.21,2.27.47,4.53.73,6.79s.52,4.24.81,6.35.65,4.17.92,6.25c.24,1.93.4,3.86.62,5.78.27,2.46.63,4.91.83,7.37a8.06,8.06,0,0,0,4.06,6.62c1.24.75,1.66.58,1.78-.84.15-2,.26-4,.28-6,0-2.36-.1-4.73-.14-7.1-.08-4-.08-8-.23-12.07-.13-3.63-.45-7.26-.64-10.88s-.32-7.42-.48-11.12C61.11,50,61,47.65,60.9,45.56Zm70.29,22.07c0-.1-.05-.31-.1-.52l-.18-.87a3.91,3.91,0,0,0-.93.49c-1,1-2,1.93-2.93,2.91-2.35,2.39-4.68,4.79-7,7.16a.7.7,0,0,1-.7,0c-1.37-1.78-2.67-3.61-4-5.38A19.31,19.31,0,0,0,113,68.9a5.66,5.66,0,0,0-5.37-.38,1.31,1.31,0,0,0-.58.85,7.18,7.18,0,0,0,.1,2.27,24.54,24.54,0,0,0,3.9,7.57,33.24,33.24,0,0,0,2.89,3.49c.63.68.43,1.17,0,1.81q-2.56,3.54-5.06,7.14c-1,1.47-2,3-3,4.47a2.63,2.63,0,0,0,.26,3.24,2.48,2.48,0,0,1,.73.75,1.09,1.09,0,0,0,1.59.57A15.47,15.47,0,0,0,116,94.44c1.2-1.82,2.37-3.66,3.5-5.42,1.36,1.21,2.65,2.48,4,3.59,2.73,2.17,5.11,4.76,8.12,6.56a20.78,20.78,0,0,0,2.84,1.4,1,1,0,0,0,.95-.4,1.36,1.36,0,0,0,0-1.15c-1.09-1.66-2.25-3.29-3.4-4.92s-2.46-3.59-3.77-5.34-2.82-3.57-4.21-5.37a.8.8,0,0,1,0-.72c1.19-1.67,2.41-3.32,3.61-5s2.59-3.58,3.82-5.41a26.08,26.08,0,0,0,1.71-3c.42-.86-.05-2-.84-2A3.54,3.54,0,0,0,131.19,67.63Zm60.95,7.54c0-.73-.07-1.31-.08-1.89,0-.19.16-.45.08-.57-.57-.85-.11-1.78-.24-2.67a5,5,0,0,1-.14-1.9c.36-1.31-.37-2.43-.39-3.66a18.52,18.52,0,0,0-.23-2.23.91.91,0,0,0-.25-.53c-.07-.06-.32.05-.47.12s-.31.23-.48.32a7.05,7.05,0,0,1-5.35.79,14,14,0,0,1-2.36-.68,23.08,23.08,0,0,1-3.37-2.18c-1.07-.83-2-1.8-3-2.74-.61-.59-1.08-1.42-1.79-1.81-1.35-.75-2.63-1.82-4.3-1.78a13.4,13.4,0,0,0-1.32.33A4.08,4.08,0,0,0,166.11,56a4.81,4.81,0,0,0,1.17,4.4,5.82,5.82,0,0,0,1.39.93c1.29.78,2.57,1.59,3.91,2.29,1.11.59,2.29,1.05,3.44,1.54,2.21,1,4.43,1.86,6.62,2.85,1.37.61,2.69,1.33,4,2a6.72,6.72,0,0,1,1.1.72,33.63,33.63,0,0,1,2.76,2.27A17.83,17.83,0,0,1,192.14,75.17ZM42.5,51A24.07,24.07,0,0,0,43,53.41c.24.81.66,1.57.88,2.38.51,1.85.91,3.74,1.42,5.59.47,1.7,1,3.38,1.57,5.06.11.32.46.56.7.84.25-.26.67-.49.71-.78a7.37,7.37,0,0,0-.1-1.81c-.16-1.35-.35-2.7-.53-4a9.4,9.4,0,0,0-.37-2.13c-.42-1-1.17-1.92-1.51-3C45.15,53.71,43.75,52.52,42.5,51ZM105,88.38c1.17-1.21,2.3-2.3,3.33-3.48.25-.28.85-.74.36-1.21-.66-.64-1.45-1.14-2.17-1.73-.41-.33-1.07-.47-1-1.22,0,0-.26-.17-.33-.13A.48.48,0,0,0,105,81c.07.91.23,1.81.24,2.71,0,1.09-.13,2.18-.18,3.27C105,87.43,105,87.91,105,88.38Z" transform="translate(-0.79 -31.44)"/><path class="cls-2" d="M139.53,63.56c1.72-1.28,3.23-2.36,4.7-3.48a27.48,27.48,0,0,0,6.57-7.4c1.13-1.82,2.08-3.74,3.13-5.6.21-.38.18-.51-.27-.61a5.37,5.37,0,0,1-4.06-4.16c-.12-.44-.11-.55.41-.38a14.44,14.44,0,0,0,6.14.59c2.49-.28,4.94-1,7.4-1.51l.67-.15-3.7-2,0-.23c1-.08,2.06-.21,3.09-.22a45.1,45.1,0,0,1,13,1.22,21,21,0,0,1,7.9,4.06,14.16,14.16,0,0,1,4.31,6.39c.47,1.35,1.13,2.86.45,4.31a9,9,0,0,1-2.07,3c-1.37,1.17-4.3.38-5.15-1.28a16.87,16.87,0,0,0-3.72-4.87A9.74,9.74,0,0,0,170.05,49a10.06,10.06,0,0,0-5.93,2.7,8.32,8.32,0,0,0-2.87,6.64,7.23,7.23,0,0,0,1.9,4.31c1.82,2.09,4.29,3.05,6.71,4.11,3,1.31,6,2.61,9,3.8a19.9,19.9,0,0,1,6.21,3.69A15.93,15.93,0,0,1,190,82.39a26.76,26.76,0,0,1,.72,3.86,13.15,13.15,0,0,1-3,9.67,19,19,0,0,1-8.33,6.07A30.34,30.34,0,0,1,168,103.74a19.75,19.75,0,0,1-11.63-4.19,13.88,13.88,0,0,1-4.13-4.16,12.74,12.74,0,0,1-1.88-7.7c.13-1.16,1.14-1.8,1.92-2.51a4.25,4.25,0,0,1,2.64-.71c1.11-.13,2.53,1,3,1.94a25.23,25.23,0,0,0,2.67,4.45,8.3,8.3,0,0,0,6.05,3,40.7,40.7,0,0,0,4.1.34,13.21,13.21,0,0,0,7.29-2.08,5.29,5.29,0,0,0,2.26-3.68,7.64,7.64,0,0,0-.15-4.39A9.38,9.38,0,0,0,177,79.51a36,36,0,0,0-3.8-2.49,32.85,32.85,0,0,0-4.45-1.74,42.45,42.45,0,0,1-8.16-3.53,5.59,5.59,0,0,0-2-1,3.08,3.08,0,0,0-2,.66,10.56,10.56,0,0,1-5.38,2,2.29,2.29,0,0,1-.8-.22c.09-.22.16-.45.26-.67,1-2.11,2.1-4.22,2.18-6.63a13.39,13.39,0,0,0-.33-2.5c-.07-.4-.26-.46-.66-.3a16.69,16.69,0,0,1-8.22,1.34C142.34,64.27,141,63.89,139.53,63.56Z" transform="translate(-0.79 -31.44)"/><path class="cls-2" d="M6.08,93.31v-.43c0-1.31,0-1.3,1.29-1.61a6.71,6.71,0,0,0,5-4.43c.83-2.33,1.6-4.68,2.38-7,.25-.76,0-1.11-.82-1.19-1-.11-1.94-.22-2.9-.4a2.67,2.67,0,0,1-1.87-2.77c0-.18.25-.33.42-.45a19.19,19.19,0,0,1,2.15-1.44,8.17,8.17,0,0,1,1.95-.6c1.07-.25,2.15-.41,3.22-.66a1.13,1.13,0,0,0,.67-.56c1.28-3,2.6-6,3.75-9,1.38-3.66,2.59-7.38,3.89-11.07,1.16-3.28,2.4-6.53,3.5-9.84.42-1.24,1.65-1.36,2.4-2.11.05,0,.4.07.48.19a13.41,13.41,0,0,1,1.47,2.41c1,2.78,2,5.61,2.92,8.42,1.12,3.26,2.28,6.5,3.31,9.79s1.82,6.42,2.77,9.62c.74,2.51,1.57,5,2.31,7.5,1.27,4.24,2.5,8.5,3.73,12.76,1,3.5,2,7,3,10.51.25.87-.2,1.66-1,1.56a18.57,18.57,0,0,1-3.64-.88c-2.52-.81-4.09-2.76-5.31-4.94a40.75,40.75,0,0,1-3.5-8.82c-.46-1.64-1.21-3.2-1.83-4.8-.29-.76-.63-1.5-.87-2.28a1.25,1.25,0,0,0-1.24-1c-1.27,0-2.53.07-3.79.12-.2,0-.39.08-.58.08-1.64,0-1.42-.09-1.7,1.33-.46,2.23-.72,4.52-1.18,6.75-.49,2.39-1.05,4.77-1.74,7.11a11.36,11.36,0,0,1-1.72,3.81c-2.18,2.75-5,4.59-8.7,4C10.78,102.32,8,100.61,6.8,97c-.38-1.19-.62-2.42-.92-3.64ZM30,70.73a13.84,13.84,0,0,1,1.79-.36c.81-.08.88-.51.71-1.14-.45-1.68-.91-3.37-1.38-5a2.3,2.3,0,0,0-.31-.48,2,2,0,0,0-.43.45,7.2,7.2,0,0,0-.62,1.46c-.34,1.33-.6,2.68-.94,4C28.53,70.65,28.57,70.74,30,70.73Z" transform="translate(-0.79 -31.44)"/><path class="cls-3" d="M207.18,94.86c-.43,2.08-.87,4.15-1.3,6.22a3.69,3.69,0,0,0-.09.58c-.09,1.34-.49,1.66-1.88,1.51,0,0,0,0-.08,0-.59,0-1.28.54-1.68-.35a12.7,12.7,0,0,0-.8-1.61,3.62,3.62,0,0,0-1-1.23c-1.12-.66-1.37-1-1.3-2.31.07-1.14.14-2.28.16-3.42.06-2.94.14-5.88.14-8.82,0-2.07-.16-4.13-.21-6.2-.05-1.86,0-3.72-.11-5.58,0-1.29-.22-2.57-.33-3.86-.22-2.43-.44-4.85-.64-7.28-.18-2.22-.34-4.44-.5-6.66-.22-2.83-.4-5.65-.66-8.47-.09-.94-.42-1.85-.6-2.78a1.23,1.23,0,0,1,.06-.79c.68-1.11,1.27-2.32,2.57-2.9.2-.09.3-.38.48-.55s.38-.37.57-.38c.67,0,.93-.43,1.06-1,0-.14,0-.39.08-.4a1.55,1.55,0,0,0,1.26-1.27c.37.27,1,.48,1.08.84a31.27,31.27,0,0,1,1,4.59c.35,2.83.6,5.68.81,8.52.13,1.64,0,3.3.13,5s.23,3,.32,4.51c.11,1.73.11,3.46.27,5.18.41,4.32.88,8.64,1.33,13,.07.67.2,1.34.29,2s.24.76.75.26c1.82-1.8,3.62-3.62,5.5-5.36,1.32-1.22,2.76-2.31,4.14-3.46a11.92,11.92,0,0,1,1.11-.91c.95-.61,1.91-1.2,2.9-1.74.6-.32,1.59.58,1.38,1.33a13.7,13.7,0,0,1-1.12,2.78,39.56,39.56,0,0,1-2.35,3.77,58.66,58.66,0,0,1-3.74,5,3.88,3.88,0,0,0-.47,4.89c1.16,2,2.64,3.83,3.82,5.83,1,1.77,2.46,3.37,2.72,5.54a7.58,7.58,0,0,0,.34,1.12c.19.64.39,1.26-.29,1.8-.22.17-.28.6-.35.92-.16.88-.86,1.36-1.63.94a4.69,4.69,0,0,1-1.57-1.33c-2.47-3.34-4.9-6.73-7.34-10.1a5.32,5.32,0,0,1-.36-.47,1.77,1.77,0,0,0-2-1.06,3,3,0,0,0-1.73,2.1c-.12.72-.24,1.43-.35,2.15Z" transform="translate(-0.79 -31.44)"/><path class="cls-3" d="M280.16,70.56a15.48,15.48,0,0,1,8.52,2.92A15.84,15.84,0,0,1,292.3,77a19.7,19.7,0,0,1,2.7,4.74A2.33,2.33,0,0,1,293.56,85c-2.36,1-4.84,1.6-7.28,2.35-3.65,1.11-7.3,2.23-11,3.29-1.23.36-2.5.58-3.76.83a.75.75,0,0,0-.53,1.24,8.34,8.34,0,0,0,5.31,3.51,16.48,16.48,0,0,0,3.33.52,14.22,14.22,0,0,0,8.63-2.94c.67-.46,1.41-.83,2-1.34a2,2,0,0,1,2.5-.42c.27.15.7,0,1.06,0s.56-.08.84-.07c1,0,1.36.63,1,1.52a10,10,0,0,1-3.49,4.22,24.58,24.58,0,0,1-7.92,4,13.88,13.88,0,0,1-3.14.49,33.18,33.18,0,0,1-4.88.08c-3-.26-5.43-1.78-7.86-3.38-2-1.29-3-3.24-4.16-5.11a5.18,5.18,0,0,0-1.09-1c-.32-.27-.65-.53-1-.77s-.79-.51-1.2-.74c-.63-.35-1.17-.73-1.16-1.59s.51-1,1.14-1.25a12.14,12.14,0,0,0,1.25-.51,1.82,1.82,0,0,0,1.2-2,14.14,14.14,0,0,1,3.64-9.19C270.51,72.65,275.16,71,280.16,70.56ZM272.7,85.82c1-.29,2.29-.64,3.56-1,2.44-.72,4.88-1.47,7.32-2.18,1.22-.35,2.44-.67,3.66-1,.65-.16.72-.36.35-1-1.22-2-3.2-2.65-5.27-3.13a8.6,8.6,0,0,0-4.54.5,9.44,9.44,0,0,0-6.47,5.89C270.94,84.94,271.44,85.75,272.7,85.82Z" transform="translate(-0.79 -31.44)"/><path class="cls-3" d="M87.28,100.76c-1.63,0-2.79,0-4,0a12.64,12.64,0,0,1-6.73-2.34,10.45,10.45,0,0,1-3.66-3.17c-.48-.83-1-1.63-1.41-2.49-.73-1.55-2.16-2.31-3.47-3.21A1.89,1.89,0,0,1,67,87.78c.06-.74.52-1,1.16-1.25A12.34,12.34,0,0,0,69.38,86a1.7,1.7,0,0,0,1-1.81,15.35,15.35,0,0,1,2.36-7.79A14.36,14.36,0,0,1,78.45,71,18.16,18.16,0,0,1,87,68.61a12.91,12.91,0,0,1,6.81,2,14.26,14.26,0,0,1,5.5,5.45c.55,1,1.12,2,1.63,3,1.12,2.22-.35,3.62-2.16,4.28-2.71,1-5.44,1.92-8.16,2.87-.56.19-1.14.32-1.7.5-2.38.75-4.75,1.54-7.14,2.25-1.21.36-2.45.59-3.67.86-.57.13-.75.7-.41,1.34a6.89,6.89,0,0,0,3.75,3.05,11.94,11.94,0,0,0,5.2,1,11.41,11.41,0,0,0,6-1.86c1.53-1,3.06-2.11,4.61-3.13a1.88,1.88,0,0,1,1-.12c.6,0,1.2.09,1.79.16a3.48,3.48,0,0,1,1.56.31c.49.39.2,1,0,1.54-1.06,2.44-3.1,3.92-5.18,5.38a19.65,19.65,0,0,1-5.8,2.65A24.65,24.65,0,0,1,87.28,100.76ZM88,75.29c-.73.11-1.48.19-2.22.35-3.65.77-6.38,2.7-7.64,6.33a2,2,0,0,0,.2,1.64,1.71,1.71,0,0,0,1.44.28,31.56,31.56,0,0,0,3.14-1c2.37-.77,4.74-1.56,7.12-2.31,1.23-.39,2.47-.75,3.71-1.1.52-.15.57-.34.29-.83C92.68,76.37,90.4,75.75,88,75.29Z" transform="translate(-0.79 -31.44)"/><path class="cls-3" d="M230.2,107.29c3.59.9,6.35-.68,8.7-3.13a23.26,23.26,0,0,0,4.5-6.38,2.32,2.32,0,0,0,0-1.7c-.71-1.67-1.55-3.28-2.38-4.9-1.54-3-3.91-5.49-5.86-8.23a28.44,28.44,0,0,1-3.85-6.24,5.77,5.77,0,0,1-.34-1.42c-.09-.94-.14-1.89-.15-2.83a2.52,2.52,0,0,1,2-2.67,1.14,1.14,0,0,1,.94.34c1.3,1.65,2.52,3.36,3.81,5,.74.95,1.59,1.82,2.33,2.76s1.57,2.24,2.43,3.29a44.24,44.24,0,0,0,3,3.31c.58.58,1.2.34,1.42-.45.49-1.72.85-3.49,1.43-5.18.67-2,1.12-4,2.36-5.77.7-1,1.3-2.07,2.05-3a2.85,2.85,0,0,1,2.63-1.22c.91.08,1.26.76,1.81,1.25.31.27.55.62.84.93a1.89,1.89,0,0,1,.62,1.89c-.67,2.25-1.35,4.5-2,6.75-.27.95-.46,1.92-.77,2.85-.65,2-1.32,4-2.07,5.9s-1.54,3.7-2.32,5.55c-.59,1.4-1.2,2.81-1.76,4.22a48,48,0,0,1-4.81,8.82c-.69,1-1.36,2.13-2.12,3.13a10.81,10.81,0,0,1-6,4.34,16.72,16.72,0,0,1-4.07.14,11.1,11.1,0,0,1-2.49-.37,2.93,2.93,0,0,1-1.13-.77,13.58,13.58,0,0,1-1.33-1.5,3.75,3.75,0,0,1-.55-3.21,1.76,1.76,0,0,1,1.63-1.48C229.19,107.25,229.69,107.29,230.2,107.29Z" transform="translate(-0.79 -31.44)"/><path class="cls-4" d="M60.9,45.56c.09,2.09.21,4.45.31,6.81.16,3.7.29,7.41.48,11.12s.51,7.25.64,10.88c.15,4,.15,8,.23,12.07,0,2.37.15,4.74.14,7.1,0,2-.13,4-.28,6-.12,1.42-.54,1.59-1.78.84a8.06,8.06,0,0,1-4.06-6.62c-.2-2.46-.56-4.91-.83-7.37-.22-1.92-.38-3.85-.62-5.78-.27-2.08-.63-4.16-.92-6.25s-.56-4.23-.81-6.35-.52-4.52-.73-6.79c-.15-1.63-.16-3.27-.31-4.89-.17-1.82-.41-3.63-.67-5.44S50.08,47.8,48.42,47L48,46.76c-1.38-.76-1.46-1.73-.24-2.67a16.87,16.87,0,0,1,9-3.43,8.62,8.62,0,0,1,2.62.26,1.85,1.85,0,0,1,1.36,1.76C60.78,43.54,60.81,44.42,60.9,45.56Z" transform="translate(-0.79 -31.44)"/><path class="cls-3" d="M131.19,67.63a3.54,3.54,0,0,1,1.22-.37c.79,0,1.26,1.16.84,2a26.08,26.08,0,0,1-1.71,3c-1.23,1.83-2.54,3.61-3.82,5.41s-2.42,3.31-3.61,5a.8.8,0,0,0,0,.72c1.39,1.8,2.85,3.55,4.21,5.37s2.52,3.56,3.77,5.34,2.31,3.26,3.4,4.92a1.36,1.36,0,0,1,0,1.15,1,1,0,0,1-.95.4,20.78,20.78,0,0,1-2.84-1.4c-3-1.8-5.39-4.39-8.12-6.56-1.4-1.11-2.69-2.38-4-3.59-1.13,1.76-2.3,3.6-3.5,5.42a15.47,15.47,0,0,1-7.62,6.24,1.09,1.09,0,0,1-1.59-.57,2.48,2.48,0,0,0-.73-.75,2.63,2.63,0,0,1-.26-3.24c1-1.5,2-3,3-4.47q2.51-3.6,5.06-7.14c.46-.64.66-1.13,0-1.81A33.24,33.24,0,0,1,111,79.21a24.54,24.54,0,0,1-3.9-7.57,7.18,7.18,0,0,1-.1-2.27,1.31,1.31,0,0,1,.58-.85,5.66,5.66,0,0,1,5.37.38,19.31,19.31,0,0,1,2.3,2.48c1.38,1.77,2.68,3.6,4,5.38a.7.7,0,0,0,.7,0c2.37-2.37,4.7-4.77,7-7.16,1-1,1.93-2,2.93-2.91a3.91,3.91,0,0,1,.93-.49l.18.87C131.14,67.32,131.17,67.53,131.19,67.63Z" transform="translate(-0.79 -31.44)"/><path class="cls-5" d="M30,70.73c-1.41,0-1.45-.08-1.18-1.11.34-1.33.6-2.68.94-4a7.2,7.2,0,0,1,.62-1.46,2,2,0,0,1,.43-.45,2.3,2.3,0,0,1,.31.48c.47,1.68.93,3.37,1.38,5,.17.63.1,1.06-.71,1.14A13.84,13.84,0,0,0,30,70.73Z" transform="translate(-0.79 -31.44)"/><path class="cls-5" d="M272.7,85.82c-1.26-.07-1.76-.88-1.39-1.89A9.44,9.44,0,0,1,277.78,78a8.6,8.6,0,0,1,4.54-.5c2.07.48,4.05,1.14,5.27,3.13.37.61.3.81-.35,1-1.22.31-2.44.63-3.66,1-2.44.71-4.88,1.46-7.32,2.18C275,85.18,273.72,85.53,272.7,85.82Z" transform="translate(-0.79 -31.44)"/><path class="cls-5" d="M88,75.29c2.41.46,4.69,1.08,6,3.4.28.49.23.68-.29.83-1.24.35-2.48.71-3.71,1.1-2.38.75-4.75,1.54-7.12,2.31a31.56,31.56,0,0,1-3.14,1,1.71,1.71,0,0,1-1.44-.28,2,2,0,0,1-.2-1.64c1.26-3.63,4-5.56,7.64-6.33C86.51,75.48,87.26,75.4,88,75.29Z" transform="translate(-0.79 -31.44)"/><path class="cls-6" d="M232.05,85.32l0,.07,0-.06Z" transform="translate(-0.79 -31.44)"/></svg>