<svg id="Layer_1" data-name="Layer 1" xmlns="http://www.w3.org/2000/svg" viewBox="0 0 1006.46 217.58"><defs><style>.cls-1{fill:#fff;}.cls-2{fill:#0468f2;}.cls-3{fill:#0569f2;}.cls-4{fill:#0669f2;}</style></defs><path class="cls-1" d="M-1298.07,1514.85a50.34,50.34,0,0,0,1-7.15c.1-15.45,0-30.9.13-46.36a108.59,108.59,0,0,1,1.11-14.06c.84-6,8.74-13.41,14.8-15.1,11.45-3.19,23-2.38,34.48-.92,9.93,1.25,18.3,10.27,18.2,23-.11,12.91,0,25.82,0,38.72a19.78,19.78,0,0,0,0,3.27,25,25,0,0,0,1,3.44,13.62,13.62,0,0,0,2.9-1.84c3.82-4.11,7.79-8.13,11.24-12.55,5.8-7.43,14-9.72,22.57-10.1,8.84-.39,17.74.32,26.6.79,10.15.54,15.51,7,18.39,15.92,1.79,5.57,2,5.86,6.82,2.95,7.11-4.29,13.8-9.39,21.22-13,16.09-7.84,33.12-9.84,50.84-6.7a73.15,73.15,0,0,1,35.35,16.69,50.56,50.56,0,0,1,5,5.68c3.76,4.33,5.17,4.56,10.19,1.73a27.86,27.86,0,0,1,3.4-1.73,13.56,13.56,0,0,0,8.51-9.14c2.05-6.3,7-9.9,13.44-11.41,12.21-2.82,24.47-3.12,36.54.23a18.08,18.08,0,0,0,12.13-.52c9.46-3.45,19.36-4.47,29.26-.77a15.7,15.7,0,0,1,10.44,12.19c.45,2.11.86,4.25,1.18,6.39s1.31,2.42,2.85,1a39,39,0,0,0,3.09-3.08c8.3-9.44,19.27-13.6,31.13-16.49a81.32,81.32,0,0,1,28.63-1.88c17.52,2,34.32,6.61,46.39,20.91,6.85,8.12,12.16,17,12.4,28.23a21.47,21.47,0,0,1-5.94,15.83c-2,2.16-2.06,3.67-.1,6,6.19,7.34,9.74,15.87,11.6,25.34.91,4.64,2.25,9.15,1.85,13.92-2.09,24.57-11.3,43.35-36.94,54-14.35,6-29.54,9.48-45.05,7.61-20.21-2.44-39.56-7.86-53.35-24.63a120,120,0,0,1-7-10.34c-.5-.76-.74-1.68-1.26-2.41-5.76-8.11-11.68-7.67-17.28-1.23-4.62,5.31-5.64,12-6.93,18.59-2.09,10.72-10.29,17.82-21.3,18.07-8.71.21-17.46.36-26.16,0-9.67-.46-17-5.21-20.6-14.34-1.65-4.21-4-5.36-8.18-5.36-9,0-16.49,4.17-23.82,8.4-9.82,5.68-19.87,9.94-31.24,11.79-6.5,1.05-13,2.34-19.37,1.58-14.57-1.72-28.92-4.51-40.9-14-6.21-4.94-11.73-4.4-16.18,2.08-5,7.32-11.82,10.19-20.4,10-8-.16-16-.23-24,0-10.32.32-17.17-4.57-21.54-13.54-4.67-9.6-9.29-19.22-14-28.8a12,12,0,0,0-1.94-2.25c-.53,1-1.47,2-1.5,3-.14,6-.2,12,0,18,.37,14.41-10.61,23.65-23.56,23.54-7.26-.06-14.54.17-21.8,0-11.12-.34-17.8-5.19-21.29-14.7a37.18,37.18,0,0,1-1.87-11.71c-.15-5.6.36-11.21.6-16.82a6,6,0,0,0,.15-1.61,26.81,26.81,0,0,0-1.08-2.82c-.72.79-1.8,1.46-2.1,2.38-3.51,10.7-9,20.25-17.12,28a65.54,65.54,0,0,1-34.9,17.51c-6.29,1.12-12.54,2.55-18.81,1.76-14.64-1.84-28.68-5.28-40.36-15.41a84,84,0,0,1-16.79-20.41c-1.28-2.11-2.23-4.84-5.63-4-3,.71-4.58,3.08-4.88,7-.32,4.31-.65,8.63-1.06,13-1.09,11.71-11.76,17.37-20.22,17.75-9.07.4-18.18.23-27.26,0a22.52,22.52,0,0,1-15.56-6.76c-3.23-3.15-3.13-2.94-6.37.06-3.62,3.36-7.84,6.16-12.84,6.51-9.19.65-18.22,3.65-27.53,2.31-10.24-1.46-20.22-3.82-29.07-9.62-9.37-6.13-15.31-14.84-18.68-25.32a96.85,96.85,0,0,1-2.71-12.7c-.48-2.7-1.87-2.65-3.16-1a87.29,87.29,0,0,0-7,10.34c-8.45,15.27-21.92,24.52-37.61,30.63-7.16,2.78-15.14,3.4-22.49,5.79s-14.73,2.24-22.1,1.8c-21.51-1.31-42-6.62-59.1-20.25-14.08-11.22-22.42-26.49-25.13-44.44-1.46-9.69,7.72-20.9,17.63-22.36,4.29-.63,8.54-1.45,12.8-2.24,2.42-.45,1.88-1.72.69-3-2.73-2.91-5.75-5.59-8.21-8.71-7.48-9.44-11.42-20.41-13.3-32.21-3.17-19.86.33-38.33,12.36-54.59a66.62,66.62,0,0,1,25.64-20.52c16.39-7.74,33.72-10,51.42-8.35,15.41,1.47,30.23,6,43.35,14.61a60.39,60.39,0,0,1,25.08,33.66c.83,2.7,1.36,2.23,3.7,1.57a6.18,6.18,0,0,0,.8-.28c6.28-3.85,7.19-7.77,7.81-13.57.68-6.34,1.61-12.47,6.59-17.36,4-3.91,9.09-4.68,13.92-5.45,7.11-1.12,14.42-1.11,21.66-1.37,11.92-.43,22.41,8.84,23.13,22.56.15,2.9,0,5.81.06,8.72,0,2.16,1.07,3.45,3.28,3.52,8.43.22,14.19,4.72,18.56,11.49.26.4.83.61,1.24.9.32-.27.78-.48.77-.67-.28-12.32-.81-24.63-.83-37,0-8.15,4.92-15.61,14.71-18.55,11.14-3.34,22.36-1.52,33.54-1.64,3.4,0,7,1.7,10.2,3.28,7.38,3.66,10.66,10.38,11,18.15.48,9.61.15,19.26,0,28.9,0,3.05-1,6.1-.92,9.14.24,10.86.69,21.72,1.16,32.58a12.44,12.44,0,0,0,1.15,3.33c1.18-.89,2.85-1.54,3.46-2.73,1.78-3.53,2.84-7.45,4.74-10.92,8.85-16.18,21.52-28.3,39.2-34.16,13.19-4.37,26.73-6,40.65-2.76,9.29,2.14,18.09,5,25.94,10.57a61.53,61.53,0,0,1,19.9,24c.46,1,.87,2,1.41,2.91a23.33,23.33,0,0,0,1.61,2.13Zm-388.33,113.5c7.72-1,15.55-1.52,23.14-3.14a61.43,61.43,0,0,0,30.86-16.38c12.45-12.3,16.1-27.61,14.1-44.52-1.82-15.32-8.67-27.65-22.53-35.21a77.84,77.84,0,0,0-15-6.24c-10.77-3.19-21.77-5.61-32.54-8.78a75.29,75.29,0,0,1-16.58-6.6,14,14,0,0,1-4.23-20.75,23.48,23.48,0,0,1,8.42-6.58,30.69,30.69,0,0,1,11-2.63c13.24-.72,26.16,2.18,31.29,16.15,1,2.77,2.49,2.92,5,2.26,7.36-1.94,14.79-3.6,22.19-5.4,6.49-1.57,7.52-3.77,4.91-10a43.6,43.6,0,0,0-18.12-21.16c-20.8-12.49-43-14.43-66-7.88-13.21,3.76-24,11.41-30.89,23.48-8.7,15.18-9,31.09-2.79,47.23,4.47,11.65,12.38,20.15,24.22,24.23,9.22,3.18,18.74,5.53,28.17,8.1,8.38,2.29,17,3.94,25.18,6.69s11.95,9.08,11.77,17.65c-.16,7.08-5.43,13.89-13.52,16.77-8.55,3.05-17.35,3-26.33,1.93-14.14-1.74-24.37-7.83-27.68-22.62-.43-1.89-1.27-2.78-3.42-2.4-8.74,1.57-17.52,2.89-26.24,4.54-3.81.71-5.07,3.07-3.94,6.81,4.28,14.33,12.42,25.67,25.62,33.16C-1716.73,1624.74-1702,1627.92-1686.4,1628.35Zm408.76-90.34q0,40.63,0,81.26c0,5.48,1.28,6.85,6.64,7,6.18.11,12.36.09,18.54,0,5.1-.08,6.37-1.38,6.42-6.57.06-8-.07-16,.06-24,0-1.92.16-4.31,1.25-5.65,6.56-8,13.4-15.78,20.19-23.6,1.65-1.9,3-1.53,4.06.77,2,4.27,4.14,8.47,6.19,12.72q10,20.85,20.1,41.7c1,2.09,1.74,4.59,4.76,4.59,8.54,0,17.08.14,25.62,0,3.38-.08,5.2-2.62,4.32-5.36a29.17,29.17,0,0,0-1.6-3.46c-11.77-24.35-23.48-48.74-35.38-73-1.67-3.43-1.57-5.68,1.17-8.6,10.32-11,20.32-22.28,30.45-33.45,1.36-1.5,2.72-2.88,1.66-5.25s-2.83-2.44-4.93-2.42c-7.27.05-14.55.21-21.8-.06a10.35,10.35,0,0,0-8.92,4q-20.36,23.1-41,46a45.64,45.64,0,0,1-5.2,4.34,46.58,46.58,0,0,1-1-6.7q-.09-42.81,0-85.61c0-5.73-1-6.73-6.61-6.78s-11.27,0-16.9,0c-7.35,0-8.09.78-8.1,8.15ZM-1066,1565.5q18.26,0,36.52,0c5.85,0,6.11,0,5.85-5.65-.27-5.78-.91-11.56-1.7-17.3a61.39,61.39,0,0,0-14.91-32.73c-14.94-17-34.61-19.11-55-15.53-20.16,3.53-33.53,16.56-41,35.35-8.08,20.22-7.93,40.89-.79,61.23,5.55,15.83,16.37,27.2,32.36,33.26,10.3,3.9,21,4.34,31.67,3,21.92-2.69,37.06-14.58,45.61-34.85,2.3-5.47.71-7.79-5.1-8.5-6.3-.76-12.63-1.36-18.87-2.49-3-.55-4.3.45-5.39,3-4,9.32-10.85,14.27-21.16,15.52-15.14,1.84-26.3-8.78-28.4-19.73-.55-2.86-.95-5.74-1.37-8.62-.8-5.46-.41-6,5.2-6Q-1084.28,1565.46-1066,1565.5Zm223.16,62.19a68,68,0,0,0,25.52-4.22c11.11-4.24,21-10,26.13-21.56,3.49-7.9,4-16.17,3-24.57-1.6-13.91-9.06-23.78-22.1-28.48-8.63-3.12-17.85-4.62-26.79-6.87-6.14-1.55-12.34-2.93-18.39-4.78-3.75-1.15-7-3.44-7.27-7.89-.25-3.65,2.78-7.45,7.72-8.76a41,41,0,0,1,16.1-1.33c7.16,1,12.46,3.8,14.93,10.78,1,2.7,2.47,3,5,2.37,6.71-1.52,13.5-2.72,20.24-4.11,4-.82,5.27-3.2,3.86-7.22-4.11-11.68-12.13-19.6-23.58-24.09-11.28-4.42-23-4.36-34.85-3.53-21.56,1.51-37.26,16.78-39.69,35.32s5.53,34.35,23.11,41c8.75,3.29,18.16,4.81,27.28,7.11,5.26,1.32,10.64,2.29,15.78,4,3.57,1.17,6.41,3.75,6.29,8-.12,4-2.6,6.63-6.11,8.33-5.56,2.68-11.63,3.09-17.56,2.92-9.89-.29-18.69-3.1-22.89-13.44-.81-2-2.17-2.34-4.37-1.86-7.08,1.53-14.24,2.67-21.34,4.1-4.84,1-6.22,3.65-4.37,8.44a41.78,41.78,0,0,0,19.55,22.56C-867,1625.59-855.53,1627.87-842.86,1627.69Zm-519.05,0c14.56,0,28.65-6.63,38.32-19.93,5.09-7,8.12-14.94,10.08-23.33,1.06-4.57,0-6.63-4.54-7.06-6.68-.63-13.4-.8-20.1-1.27-2.54-.18-3.16,1.17-4,3.32-1.84,4.69-3.71,9.56-6.62,13.6-4.26,5.9-10.59,7.82-17.85,6.56-9.57-1.66-14.06-8.45-16.56-16.84-4.25-14.29-3.74-28.72.39-42.94a41.44,41.44,0,0,1,5.69-11.67c4.47-6.54,11.26-8.05,18.77-7.15s12,5.51,14.37,12.39c.83,2.39,1.39,4.87,2,7.33s2.22,4,4.65,3.72c6.84-.75,13.68-1.63,20.45-2.82,3.1-.55,4.46-2.83,3.87-5.51-2.25-10.2-5.51-20-12.6-28-14.13-15.92-32.47-17.38-51.53-13.63-16.82,3.31-28.38,14.43-35.45,29.64-10.75,23.1-10.8,46.91-1.26,70.31C-1405.14,1615.68-1389.44,1627.87-1361.91,1627.72Zm-218.77-67.58c0,5.09-.17,10.18,0,15.26.37,8.86.45,17.78,1.61,26.55,1.36,10.25,7.45,17.45,16.8,21.92,12.37,5.92,25.19,3.76,38,2.2,2.33-.29,2.62-2.1,2.61-4.08,0-5.27,0-10.54,0-15.8-.07-4.91-1.28-5.91-6.2-6.09a105.06,105.06,0,0,1-11.35-.95,9.38,9.38,0,0,1-8.35-8.13,61.67,61.67,0,0,1-1.09-9.73q-.16-27,0-54c0-4.54.78-5.19,5.53-5.26,4.53-.07,9.08.07,13.61,0,4.27-.1,5.6-1.36,5.69-5.51.12-5.44.12-10.9,0-16.34-.08-4.08-1.5-5.45-5.69-5.56-4.53-.12-9.08,0-13.62,0-5.27,0-5.51-.27-5.54-5.57,0-7.81.07-15.62,0-23.43,0-4.19-1.08-5.24-5.18-5.09-6,.22-12,.57-17.91,1.13-4.8.46-5,.83-5.27,5.69-.51,7.6-1.17,15.19-1.49,22.8-.14,3.19-1.18,4.71-4.51,4.5a67,67,0,0,0-7.63,0c-3.81.2-5.17,1.55-5.29,5.37-.13,4,0,8,0,12-.05,8.76-1.16,10.4,9.72,10.1,5.55-.15,5.66.12,5.67,5.89C-1580.66,1538.71-1580.68,1549.43-1580.68,1560.14Zm625.12-48.23-1.06-.2c-.08-3.33-.2-6.66-.24-10-.08-6-1-7.06-6.88-7.11-5.45,0-10.9,0-16.35,0-6.33,0-7.31,1-7.31,7.25q0,58.58,0,117.15c0,6,1.2,7.16,7.44,7.22,6,0,12,0,18,0,6.79,0,7.55-.77,7.56-7.48,0-16.89.09-33.78,0-50.67a62.73,62.73,0,0,1,6.15-26.81c2.53-5.55,6.5-9.65,12.44-11.38,3.63-1.05,7.4-1.62,11.11-2.35,4.48-.88,5.09-1.47,5.13-6.07.06-7.63,0-15.26,0-22.89,0-5.62-.69-6.31-6.27-5.95-10.6.68-19,5.6-25.48,13.85C-952.79,1508.27-954.16,1510.1-955.56,1511.91ZM-1456,1560.4q0-29.72,0-59.42c0-5.43-.87-6.3-6.37-6.36q-10.08-.11-20.16,0c-5.14.06-6.39,1.32-6.4,6.51q0,59.14,0,118.29c0,5.26,1.51,6.72,6.88,6.79,6.35.09,12.71.06,19.07,0,6,0,7-1,7-7Q-1456,1589.84-1456,1560.4Zm0-93.3c0-4.16,0-8.33,0-12.5,0-3.06-1.36-4.85-4.5-4.87-7.78,0-15.57-.11-23.36,0-3.49.07-5,1.57-5.07,5q-.19,12,0,23.91c.05,3.53,1.48,5,4.94,5.07,7.78.14,15.57,0,23.36,0,3.15,0,4.62-1.64,4.62-4.73Z" transform="translate(1775.73 -1428.8)"/><path class="cls-2" d="M-1686.4,1628.35c-15.63-.43-30.33-3.61-44-11.34-13.2-7.49-21.34-18.83-25.62-33.16-1.13-3.74.13-6.1,3.94-6.81,8.72-1.65,17.5-3,26.24-4.54,2.15-.38,3,.51,3.42,2.4,3.31,14.79,13.54,20.88,27.68,22.62,9,1.11,17.78,1.12,26.33-1.93,8.09-2.88,13.36-9.69,13.52-16.77.18-8.57-3.54-14.89-11.77-17.65s-16.8-4.4-25.18-6.69c-9.43-2.57-19-4.92-28.17-8.1-11.84-4.08-19.75-12.58-24.22-24.23-6.19-16.14-5.91-32.05,2.79-47.23,6.93-12.07,17.68-19.72,30.89-23.48,23-6.55,45.25-4.61,66,7.88a43.6,43.6,0,0,1,18.12,21.16c2.61,6.28,1.58,8.48-4.91,10-7.4,1.8-14.83,3.46-22.19,5.4-2.53.66-4,.51-5-2.26-5.13-14-18-16.87-31.29-16.15a30.69,30.69,0,0,0-11,2.63,23.48,23.48,0,0,0-8.42,6.58,14,14,0,0,0,4.23,20.75,75.29,75.29,0,0,0,16.58,6.6c10.77,3.17,21.77,5.59,32.54,8.78a77.84,77.84,0,0,1,15,6.24c13.86,7.56,20.71,19.89,22.53,35.21,2,16.91-1.65,32.22-14.1,44.52a61.43,61.43,0,0,1-30.86,16.38C-1670.85,1626.83-1678.68,1627.34-1686.4,1628.35Z" transform="translate(1775.73 -1428.8)"/><path class="cls-3" d="M-1277.64,1538v-80.16c0-7.37.75-8.13,8.1-8.15,5.63,0,11.27,0,16.9,0s6.61,1,6.61,6.78q0,42.81,0,85.61a46.58,46.58,0,0,0,1,6.7,45.64,45.64,0,0,0,5.2-4.34q20.6-22.89,41-46a10.35,10.35,0,0,1,8.92-4c7.25.27,14.53.11,21.8.06,2.1,0,3.91.13,4.93,2.42s-.3,3.75-1.66,5.25c-10.13,11.17-20.13,22.46-30.45,33.45-2.74,2.92-2.84,5.17-1.17,8.6,11.9,24.29,23.61,48.68,35.38,73a29.17,29.17,0,0,1,1.6,3.46c.88,2.74-.94,5.28-4.32,5.36-8.54.19-17.08.07-25.62,0-3,0-3.75-2.5-4.76-4.59q-10.08-20.83-20.1-41.7c-2-4.25-4.2-8.45-6.19-12.72-1.07-2.3-2.41-2.67-4.06-.77-6.79,7.82-13.63,15.6-20.19,23.6-1.09,1.34-1.22,3.73-1.25,5.65-.13,8,0,16-.06,24,0,5.19-1.32,6.49-6.42,6.57-6.18.08-12.36.1-18.54,0-5.36-.1-6.63-1.47-6.64-7Q-1277.66,1578.64-1277.64,1538Z" transform="translate(1775.73 -1428.8)"/><path class="cls-3" d="M-1066,1565.5q-18.27,0-36.53,0c-5.61,0-6,.51-5.2,6,.42,2.88.82,5.76,1.37,8.62,2.1,11,13.26,21.57,28.4,19.73,10.31-1.25,17.19-6.2,21.16-15.52,1.09-2.54,2.37-3.54,5.39-3,6.24,1.13,12.57,1.73,18.87,2.49,5.81.71,7.4,3,5.1,8.5-8.55,20.27-23.69,32.16-45.61,34.85-10.71,1.31-21.37.87-31.67-3-16-6.06-26.81-17.43-32.36-33.26-7.14-20.34-7.29-41,.79-61.23,7.51-18.79,20.88-31.82,41-35.35,20.4-3.58,40.07-1.46,55,15.53a61.39,61.39,0,0,1,14.91,32.73c.79,5.74,1.43,11.52,1.7,17.3.26,5.61,0,5.65-5.85,5.65Q-1047.76,1565.52-1066,1565.5Zm-16.94-22c6.34,0,12.68,0,19,0,6.08,0,7-1.26,5-7.09a29.46,29.46,0,0,0-1.16-3c-4.87-10.19-13.62-15.58-24.35-14.75-13.49,1-20,10.18-22.51,19.59-1.23,4.5-.48,5.26,4.45,5.3C-1096,1543.58-1089.48,1543.55-1083,1543.55Z" transform="translate(1775.73 -1428.8)"/><path class="cls-3" d="M-842.86,1627.69c-12.67.18-24.1-2.1-34.76-7.83a41.78,41.78,0,0,1-19.55-22.56c-1.85-4.79-.47-7.48,4.37-8.44,7.1-1.43,14.26-2.57,21.34-4.1,2.2-.48,3.56-.15,4.37,1.86,4.2,10.34,13,13.15,22.89,13.44,5.93.17,12-.24,17.56-2.92,3.51-1.7,6-4.28,6.11-8.33.12-4.26-2.72-6.84-6.29-8-5.14-1.68-10.52-2.65-15.78-4-9.12-2.3-18.53-3.82-27.28-7.11-17.58-6.62-25.55-22.38-23.11-41s18.13-33.81,39.69-35.32c11.84-.83,23.57-.89,34.85,3.53,11.45,4.49,19.47,12.41,23.58,24.09,1.41,4,.09,6.4-3.86,7.22-6.74,1.39-13.53,2.59-20.24,4.11-2.54.58-4.06.33-5-2.37-2.47-7-7.77-9.81-14.93-10.78a41,41,0,0,0-16.1,1.33c-4.94,1.31-8,5.11-7.72,8.76.31,4.45,3.52,6.74,7.27,7.89,6.05,1.85,12.25,3.23,18.39,4.78,8.94,2.25,18.16,3.75,26.79,6.87,13,4.7,20.5,14.57,22.1,28.48,1,8.4.46,16.67-3,24.57-5.12,11.57-15,17.32-26.13,21.56A68,68,0,0,1-842.86,1627.69Z" transform="translate(1775.73 -1428.8)"/><path class="cls-3" d="M-1361.91,1627.72c-27.53.15-43.23-12-51.9-33.27-9.54-23.4-9.49-47.21,1.26-70.31,7.07-15.21,18.63-26.33,35.45-29.64,19.06-3.75,37.4-2.29,51.53,13.63,7.09,8,10.35,17.79,12.6,28,.59,2.68-.77,5-3.87,5.51-6.77,1.19-13.61,2.07-20.45,2.82-2.43.27-4-1.27-4.65-3.72s-1.19-4.94-2-7.33c-2.38-6.88-6.82-11.48-14.37-12.39s-14.3.61-18.77,7.15a41.44,41.44,0,0,0-5.69,11.67c-4.13,14.22-4.64,28.65-.39,42.94,2.5,8.39,7,15.18,16.56,16.84,7.26,1.26,13.59-.66,17.85-6.56,2.91-4,4.78-8.91,6.62-13.6.84-2.15,1.46-3.5,4-3.32,6.7.47,13.42.64,20.1,1.27,4.56.43,5.6,2.49,4.54,7.06-2,8.39-5,16.33-10.08,23.33C-1333.26,1621.09-1347.35,1627.71-1361.91,1627.72Z" transform="translate(1775.73 -1428.8)"/><path class="cls-2" d="M-1580.68,1560.14c0-10.71,0-21.43,0-32.15,0-5.77-.12-6-5.67-5.89-10.88.3-9.77-1.34-9.72-10.1,0-4-.1-8,0-12,.12-3.82,1.48-5.17,5.29-5.37a67,67,0,0,1,7.63,0c3.33.21,4.37-1.31,4.51-4.5.32-7.61,1-15.2,1.49-22.8.32-4.86.47-5.23,5.27-5.69,5.95-.56,11.93-.91,17.91-1.13,4.1-.15,5.13.9,5.18,5.09.1,7.81,0,15.62,0,23.43,0,5.3.27,5.52,5.54,5.57,4.54,0,9.09-.09,13.62,0,4.19.11,5.61,1.48,5.69,5.56.12,5.44.12,10.9,0,16.34-.09,4.15-1.42,5.41-5.69,5.51-4.53.11-9.08,0-13.61,0-4.75.07-5.52.72-5.53,5.26q-.09,27,0,54a61.67,61.67,0,0,0,1.09,9.73,9.38,9.38,0,0,0,8.35,8.13,105.06,105.06,0,0,0,11.35.95c4.92.18,6.13,1.18,6.2,6.09.08,5.26,0,10.53,0,15.8,0,2-.28,3.79-2.61,4.08-12.78,1.56-25.6,3.72-38-2.2-9.35-4.47-15.44-11.67-16.8-21.92-1.16-8.77-1.24-17.69-1.61-26.55C-1580.85,1570.32-1580.68,1565.23-1580.68,1560.14Z" transform="translate(1775.73 -1428.8)"/><path class="cls-3" d="M-955.56,1511.91c1.4-1.81,2.77-3.64,4.19-5.43,6.52-8.25,14.88-13.17,25.48-13.85,5.58-.36,6.26.33,6.27,5.95,0,7.63.06,15.26,0,22.89,0,4.6-.65,5.19-5.13,6.07-3.71.73-7.48,1.3-11.11,2.35-5.94,1.73-9.91,5.83-12.44,11.38a62.73,62.73,0,0,0-6.15,26.81c.12,16.89.05,33.78,0,50.67,0,6.71-.77,7.46-7.56,7.48-6,0-12,0-18,0-6.24-.06-7.43-1.22-7.44-7.22q0-58.58,0-117.15c0-6.26,1-7.21,7.31-7.25,5.45,0,10.9,0,16.35,0,5.84.05,6.8,1.11,6.88,7.11,0,3.33.16,6.66.24,10Z" transform="translate(1775.73 -1428.8)"/><path class="cls-2" d="M-1456,1560.4q0,29.43,0,58.87c0,6-.92,6.92-7,7-6.36,0-12.72.07-19.07,0-5.37-.07-6.88-1.53-6.88-6.79q0-59.14,0-118.29c0-5.19,1.26-6.45,6.4-6.51q10.08-.11,20.16,0c5.5.06,6.36.93,6.37,6.36Q-1456,1530.68-1456,1560.4Z" transform="translate(1775.73 -1428.8)"/><path class="cls-4" d="M-1456,1467.1v12c0,3.09-1.47,4.72-4.62,4.73-7.79,0-15.58.09-23.36,0-3.46-.06-4.89-1.54-4.94-5.07q-.18-12,0-23.91c.06-3.43,1.58-4.93,5.07-5,7.79-.14,15.58-.08,23.36,0,3.14,0,4.52,1.81,4.5,4.87C-1456,1458.77-1456,1462.94-1456,1467.1Z" transform="translate(1775.73 -1428.8)"/><path class="cls-1" d="M-1083,1543.55c-6.52,0-13,0-19.56,0-4.93,0-5.68-.8-4.45-5.3,2.56-9.41,9-18.55,22.51-19.59,10.73-.83,19.48,4.56,24.35,14.75a29.46,29.46,0,0,1,1.16,3c2,5.83,1.08,7.08-5,7.09C-1070.28,1543.56-1076.62,1543.55-1083,1543.55Z" transform="translate(1775.73 -1428.8)"/></svg>